<svg width="160" height="141" viewBox="0 0 160 141" fill="none" xmlns="http://www.w3.org/2000/svg">
<g opacity="0.5">
<circle cx="158" cy="138.492" r="2" transform="rotate(180 158 138.492)" fill="#D36F46"/>
<circle cx="150" cy="138.492" r="2" transform="rotate(180 150 138.492)" fill="#D36F46"/>
<circle cx="142" cy="138.492" r="2" transform="rotate(180 142 138.492)" fill="#D36F46"/>
<circle cx="134" cy="138.492" r="2" transform="rotate(180 134 138.492)" fill="#D36F46"/>
<circle cx="126" cy="138.492" r="2" transform="rotate(180 126 138.492)" fill="#D36F46"/>
<circle cx="118" cy="138.492" r="2" transform="rotate(180 118 138.492)" fill="#D36F46"/>
<circle cx="110" cy="138.492" r="2" transform="rotate(180 110 138.492)" fill="#D36F46"/>
<circle cx="102" cy="138.492" r="2" transform="rotate(180 102 138.492)" fill="#D36F46"/>
<circle cx="94" cy="138.492" r="2" transform="rotate(180 94 138.492)" fill="#D36F46"/>
<circle cx="86" cy="138.492" r="2" transform="rotate(180 86 138.492)" fill="#D36F46"/>
<circle cx="78" cy="138.492" r="2" transform="rotate(180 78 138.492)" fill="#D36F46"/>
<circle cx="70" cy="138.492" r="2" transform="rotate(180 70 138.492)" fill="#D36F46"/>
<circle cx="62" cy="138.492" r="2" transform="rotate(180 62 138.492)" fill="#D36F46"/>
<circle cx="54" cy="138.492" r="2" transform="rotate(180 54 138.492)" fill="#D36F46"/>
<circle cx="46" cy="138.492" r="2" transform="rotate(180 46 138.492)" fill="#D36F46"/>
<circle cx="38" cy="138.492" r="2" transform="rotate(180 38 138.492)" fill="#D36F46"/>
<circle cx="30" cy="138.492" r="2" transform="rotate(180 30 138.492)" fill="#D36F46"/>
<circle cx="22" cy="138.492" r="2" transform="rotate(180 22 138.492)" fill="#D36F46"/>
<circle cx="158" cy="130.492" r="2" transform="rotate(180 158 130.492)" fill="#D36F46"/>
<circle cx="150" cy="130.492" r="2" transform="rotate(180 150 130.492)" fill="#D36F46"/>
<circle cx="142" cy="130.492" r="2" transform="rotate(180 142 130.492)" fill="#D36F46"/>
<circle cx="134" cy="130.492" r="2" transform="rotate(180 134 130.492)" fill="#D36F46"/>
<circle cx="126" cy="130.492" r="2" transform="rotate(180 126 130.492)" fill="#D36F46"/>
<circle cx="118" cy="130.492" r="2" transform="rotate(180 118 130.492)" fill="#D36F46"/>
<circle cx="110" cy="130.492" r="2" transform="rotate(180 110 130.492)" fill="#D36F46"/>
<circle cx="102" cy="130.492" r="2" transform="rotate(180 102 130.492)" fill="#D36F46"/>
<circle cx="94" cy="130.492" r="2" transform="rotate(180 94 130.492)" fill="#D36F46"/>
<circle cx="86" cy="130.492" r="2" transform="rotate(180 86 130.492)" fill="#D36F46"/>
<circle cx="78" cy="130.492" r="2" transform="rotate(180 78 130.492)" fill="#D36F46"/>
<circle cx="70" cy="130.492" r="2" transform="rotate(180 70 130.492)" fill="#D36F46"/>
<circle cx="62" cy="130.492" r="2" transform="rotate(180 62 130.492)" fill="#D36F46"/>
<circle cx="54" cy="130.492" r="2" transform="rotate(180 54 130.492)" fill="#D36F46"/>
<circle cx="46" cy="130.492" r="2" transform="rotate(180 46 130.492)" fill="#D36F46"/>
<circle cx="38" cy="130.492" r="2" transform="rotate(180 38 130.492)" fill="#D36F46"/>
<circle cx="30" cy="130.492" r="2" transform="rotate(180 30 130.492)" fill="#D36F46"/>
<circle cx="158" cy="122.492" r="2" transform="rotate(180 158 122.492)" fill="#D36F46"/>
<circle cx="150" cy="122.492" r="2" transform="rotate(180 150 122.492)" fill="#D36F46"/>
<circle cx="142" cy="122.492" r="2" transform="rotate(180 142 122.492)" fill="#D36F46"/>
<circle cx="134" cy="122.492" r="2" transform="rotate(180 134 122.492)" fill="#D36F46"/>
<circle cx="126" cy="122.492" r="2" transform="rotate(180 126 122.492)" fill="#D36F46"/>
<circle cx="118" cy="122.492" r="2" transform="rotate(180 118 122.492)" fill="#D36F46"/>
<circle cx="110" cy="122.492" r="2" transform="rotate(180 110 122.492)" fill="#D36F46"/>
<circle cx="102" cy="122.492" r="2" transform="rotate(180 102 122.492)" fill="#D36F46"/>
<circle cx="94" cy="122.492" r="2" transform="rotate(180 94 122.492)" fill="#D36F46"/>
<circle cx="86" cy="122.492" r="2" transform="rotate(180 86 122.492)" fill="#D36F46"/>
<circle cx="78" cy="122.492" r="2" transform="rotate(180 78 122.492)" fill="#D36F46"/>
<circle cx="70" cy="122.492" r="2" transform="rotate(180 70 122.492)" fill="#D36F46"/>
<circle cx="62" cy="122.492" r="2" transform="rotate(180 62 122.492)" fill="#D36F46"/>
<circle cx="54" cy="122.492" r="2" transform="rotate(180 54 122.492)" fill="#D36F46"/>
<circle cx="46" cy="122.492" r="2" transform="rotate(180 46 122.492)" fill="#D36F46"/>
<circle cx="38" cy="122.492" r="2" transform="rotate(180 38 122.492)" fill="#D36F46"/>
<circle cx="158" cy="114.492" r="2" transform="rotate(180 158 114.492)" fill="#D36F46"/>
<circle cx="150" cy="114.492" r="2" transform="rotate(180 150 114.492)" fill="#D36F46"/>
<circle cx="142" cy="114.492" r="2" transform="rotate(180 142 114.492)" fill="#D36F46"/>
<circle cx="134" cy="114.492" r="2" transform="rotate(180 134 114.492)" fill="#D36F46"/>
<circle cx="126" cy="114.492" r="2" transform="rotate(180 126 114.492)" fill="#D36F46"/>
<circle cx="118" cy="114.492" r="2" transform="rotate(180 118 114.492)" fill="#D36F46"/>
<circle cx="110" cy="114.492" r="2" transform="rotate(180 110 114.492)" fill="#D36F46"/>
<circle cx="102" cy="114.492" r="2" transform="rotate(180 102 114.492)" fill="#D36F46"/>
<circle cx="94" cy="114.492" r="2" transform="rotate(180 94 114.492)" fill="#D36F46"/>
<circle cx="86" cy="114.492" r="2" transform="rotate(180 86 114.492)" fill="#D36F46"/>
<circle cx="78" cy="114.492" r="2" transform="rotate(180 78 114.492)" fill="#D36F46"/>
<circle cx="70" cy="114.492" r="2" transform="rotate(180 70 114.492)" fill="#D36F46"/>
<circle cx="62" cy="114.492" r="2" transform="rotate(180 62 114.492)" fill="#D36F46"/>
<circle cx="54" cy="114.492" r="2" transform="rotate(180 54 114.492)" fill="#D36F46"/>
<circle cx="46" cy="114.492" r="2" transform="rotate(180 46 114.492)" fill="#D36F46"/>
<circle cx="158" cy="106.492" r="2" transform="rotate(180 158 106.492)" fill="#D36F46"/>
<circle cx="150" cy="106.492" r="2" transform="rotate(180 150 106.492)" fill="#D36F46"/>
<circle cx="142" cy="106.492" r="2" transform="rotate(180 142 106.492)" fill="#D36F46"/>
<circle cx="134" cy="106.492" r="2" transform="rotate(180 134 106.492)" fill="#D36F46"/>
<circle cx="126" cy="106.492" r="2" transform="rotate(180 126 106.492)" fill="#D36F46"/>
<circle cx="118" cy="106.492" r="2" transform="rotate(180 118 106.492)" fill="#D36F46"/>
<circle cx="110" cy="106.492" r="2" transform="rotate(180 110 106.492)" fill="#D36F46"/>
<circle cx="102" cy="106.492" r="2" transform="rotate(180 102 106.492)" fill="#D36F46"/>
<circle cx="94" cy="106.492" r="2" transform="rotate(180 94 106.492)" fill="#D36F46"/>
<circle cx="86" cy="106.492" r="2" transform="rotate(180 86 106.492)" fill="#D36F46"/>
<circle cx="78" cy="106.492" r="2" transform="rotate(180 78 106.492)" fill="#D36F46"/>
<circle cx="70" cy="106.492" r="2" transform="rotate(180 70 106.492)" fill="#D36F46"/>
<circle cx="62" cy="106.492" r="2" transform="rotate(180 62 106.492)" fill="#D36F46"/>
<circle cx="54" cy="106.492" r="2" transform="rotate(180 54 106.492)" fill="#D36F46"/>
<circle cx="158" cy="98.492" r="2" transform="rotate(180 158 98.492)" fill="#D36F46"/>
<circle cx="150" cy="98.492" r="2" transform="rotate(180 150 98.492)" fill="#D36F46"/>
<circle cx="142" cy="98.492" r="2" transform="rotate(180 142 98.492)" fill="#D36F46"/>
<circle cx="134" cy="98.492" r="2" transform="rotate(180 134 98.492)" fill="#D36F46"/>
<circle cx="126" cy="98.492" r="2" transform="rotate(180 126 98.492)" fill="#D36F46"/>
<circle cx="118" cy="98.492" r="2" transform="rotate(180 118 98.492)" fill="#D36F46"/>
<circle cx="110" cy="98.492" r="2" transform="rotate(180 110 98.492)" fill="#D36F46"/>
<circle cx="102" cy="98.492" r="2" transform="rotate(180 102 98.492)" fill="#D36F46"/>
<circle cx="94" cy="98.492" r="2" transform="rotate(180 94 98.492)" fill="#D36F46"/>
<circle cx="86" cy="98.492" r="2" transform="rotate(180 86 98.492)" fill="#D36F46"/>
<circle cx="78" cy="98.492" r="2" transform="rotate(180 78 98.492)" fill="#D36F46"/>
<circle cx="70" cy="98.492" r="2" transform="rotate(180 70 98.492)" fill="#D36F46"/>
<circle cx="62" cy="98.492" r="2" transform="rotate(180 62 98.492)" fill="#D36F46"/>
<circle cx="158" cy="90.492" r="2" transform="rotate(180 158 90.492)" fill="#D36F46"/>
<circle cx="150" cy="90.492" r="2" transform="rotate(180 150 90.492)" fill="#D36F46"/>
<circle cx="142" cy="90.492" r="2" transform="rotate(180 142 90.492)" fill="#D36F46"/>
<circle cx="134" cy="90.492" r="2" transform="rotate(180 134 90.492)" fill="#D36F46"/>
<circle cx="126" cy="90.492" r="2" transform="rotate(180 126 90.492)" fill="#D36F46"/>
<circle cx="118" cy="90.492" r="2" transform="rotate(180 118 90.492)" fill="#D36F46"/>
<circle cx="110" cy="90.492" r="2" transform="rotate(180 110 90.492)" fill="#D36F46"/>
<circle cx="102" cy="90.492" r="2" transform="rotate(180 102 90.492)" fill="#D36F46"/>
<circle cx="94" cy="90.492" r="2" transform="rotate(180 94 90.492)" fill="#D36F46"/>
<circle cx="86" cy="90.492" r="2" transform="rotate(180 86 90.492)" fill="#D36F46"/>
<circle cx="78" cy="90.492" r="2" transform="rotate(180 78 90.492)" fill="#D36F46"/>
<circle cx="70" cy="90.492" r="2" transform="rotate(180 70 90.492)" fill="#D36F46"/>
<circle cx="158" cy="82.492" r="2" transform="rotate(180 158 82.492)" fill="#D36F46"/>
<circle cx="150" cy="82.492" r="2" transform="rotate(180 150 82.492)" fill="#D36F46"/>
<circle cx="142" cy="82.492" r="2" transform="rotate(180 142 82.492)" fill="#D36F46"/>
<circle cx="134" cy="82.492" r="2" transform="rotate(180 134 82.492)" fill="#D36F46"/>
<circle cx="126" cy="82.492" r="2" transform="rotate(180 126 82.492)" fill="#D36F46"/>
<circle cx="118" cy="82.492" r="2" transform="rotate(180 118 82.492)" fill="#D36F46"/>
<circle cx="110" cy="82.492" r="2" transform="rotate(180 110 82.492)" fill="#D36F46"/>
<circle cx="102" cy="82.492" r="2" transform="rotate(180 102 82.492)" fill="#D36F46"/>
<circle cx="94" cy="82.492" r="2" transform="rotate(180 94 82.492)" fill="#D36F46"/>
<circle cx="86" cy="82.492" r="2" transform="rotate(180 86 82.492)" fill="#D36F46"/>
<circle cx="78" cy="82.492" r="2" transform="rotate(180 78 82.492)" fill="#D36F46"/>
<circle cx="158" cy="74.492" r="2" transform="rotate(180 158 74.492)" fill="#D36F46"/>
<circle cx="150" cy="74.492" r="2" transform="rotate(180 150 74.492)" fill="#D36F46"/>
<circle cx="142" cy="74.492" r="2" transform="rotate(180 142 74.492)" fill="#D36F46"/>
<circle cx="134" cy="74.492" r="2" transform="rotate(180 134 74.492)" fill="#D36F46"/>
<circle cx="126" cy="74.492" r="2" transform="rotate(180 126 74.492)" fill="#D36F46"/>
<circle cx="118" cy="74.492" r="2" transform="rotate(180 118 74.492)" fill="#D36F46"/>
<circle cx="110" cy="74.492" r="2" transform="rotate(180 110 74.492)" fill="#D36F46"/>
<circle cx="102" cy="74.492" r="2" transform="rotate(180 102 74.492)" fill="#D36F46"/>
<circle cx="94" cy="74.492" r="2" transform="rotate(180 94 74.492)" fill="#D36F46"/>
<circle cx="86" cy="74.492" r="2" transform="rotate(180 86 74.492)" fill="#D36F46"/>
<circle cx="158" cy="66.492" r="2" transform="rotate(180 158 66.492)" fill="#D36F46"/>
<circle cx="150" cy="66.492" r="2" transform="rotate(180 150 66.492)" fill="#D36F46"/>
<circle cx="142" cy="66.492" r="2" transform="rotate(180 142 66.492)" fill="#D36F46"/>
<circle cx="134" cy="66.492" r="2" transform="rotate(180 134 66.492)" fill="#D36F46"/>
<circle cx="126" cy="66.492" r="2" transform="rotate(180 126 66.492)" fill="#D36F46"/>
<circle cx="118" cy="66.492" r="2" transform="rotate(180 118 66.492)" fill="#D36F46"/>
<circle cx="110" cy="66.492" r="2" transform="rotate(180 110 66.492)" fill="#D36F46"/>
<circle cx="102" cy="66.492" r="2" transform="rotate(180 102 66.492)" fill="#D36F46"/>
<circle cx="94" cy="66.492" r="2" transform="rotate(180 94 66.492)" fill="#D36F46"/>
<circle cx="158" cy="58.492" r="2" transform="rotate(180 158 58.492)" fill="#D36F46"/>
<circle cx="150" cy="58.492" r="2" transform="rotate(180 150 58.492)" fill="#D36F46"/>
<circle cx="142" cy="58.492" r="2" transform="rotate(180 142 58.492)" fill="#D36F46"/>
<circle cx="134" cy="58.492" r="2" transform="rotate(180 134 58.492)" fill="#D36F46"/>
<circle cx="126" cy="58.492" r="2" transform="rotate(180 126 58.492)" fill="#D36F46"/>
<circle cx="118" cy="58.492" r="2" transform="rotate(180 118 58.492)" fill="#D36F46"/>
<circle cx="110" cy="58.492" r="2" transform="rotate(180 110 58.492)" fill="#D36F46"/>
<circle cx="102" cy="58.492" r="2" transform="rotate(180 102 58.492)" fill="#D36F46"/>
<circle cx="158" cy="50.492" r="2" transform="rotate(180 158 50.492)" fill="#D36F46"/>
<circle cx="150" cy="50.492" r="2" transform="rotate(180 150 50.492)" fill="#D36F46"/>
<circle cx="142" cy="50.492" r="2" transform="rotate(180 142 50.492)" fill="#D36F46"/>
<circle cx="134" cy="50.492" r="2" transform="rotate(180 134 50.492)" fill="#D36F46"/>
<circle cx="126" cy="50.492" r="2" transform="rotate(180 126 50.492)" fill="#D36F46"/>
<circle cx="118" cy="50.492" r="2" transform="rotate(180 118 50.492)" fill="#D36F46"/>
<circle cx="110" cy="50.492" r="2" transform="rotate(180 110 50.492)" fill="#D36F46"/>
<circle cx="158" cy="42.492" r="2" transform="rotate(180 158 42.492)" fill="#D36F46"/>
<circle cx="150" cy="42.492" r="2" transform="rotate(180 150 42.492)" fill="#D36F46"/>
<circle cx="142" cy="42.492" r="2" transform="rotate(180 142 42.492)" fill="#D36F46"/>
<circle cx="134" cy="42.492" r="2" transform="rotate(180 134 42.492)" fill="#D36F46"/>
<circle cx="126" cy="42.492" r="2" transform="rotate(180 126 42.492)" fill="#D36F46"/>
<circle cx="118" cy="42.492" r="2" transform="rotate(180 118 42.492)" fill="#D36F46"/>
<circle cx="158" cy="34.492" r="2" transform="rotate(180 158 34.492)" fill="#D36F46"/>
<circle cx="150" cy="34.492" r="2" transform="rotate(180 150 34.492)" fill="#D36F46"/>
<circle cx="142" cy="34.492" r="2" transform="rotate(180 142 34.492)" fill="#D36F46"/>
<circle cx="134" cy="34.492" r="2" transform="rotate(180 134 34.492)" fill="#D36F46"/>
<circle cx="126" cy="34.492" r="2" transform="rotate(180 126 34.492)" fill="#D36F46"/>
<circle cx="158" cy="26.492" r="2" transform="rotate(180 158 26.492)" fill="#D36F46"/>
<circle cx="150" cy="26.492" r="2" transform="rotate(180 150 26.492)" fill="#D36F46"/>
<circle cx="142" cy="26.492" r="2" transform="rotate(180 142 26.492)" fill="#D36F46"/>
<circle cx="134" cy="26.492" r="2" transform="rotate(180 134 26.492)" fill="#D36F46"/>
<circle cx="158" cy="18.492" r="2" transform="rotate(180 158 18.492)" fill="#D36F46"/>
<circle cx="150" cy="18.492" r="2" transform="rotate(180 150 18.492)" fill="#D36F46"/>
<circle cx="142" cy="18.492" r="2" transform="rotate(180 142 18.492)" fill="#D36F46"/>
<circle cx="158" cy="10.492" r="2" transform="rotate(180 158 10.492)" fill="#D36F46"/>
<circle cx="150" cy="10.492" r="2" transform="rotate(180 150 10.492)" fill="#D36F46"/>
<circle cx="158" cy="2.492" r="2" transform="rotate(180 158 2.492)" fill="#D36F46"/>
</g>
</svg>
