<svg width="95" height="94" viewBox="0 0 95 94" fill="none" xmlns="http://www.w3.org/2000/svg">
<g clip-path="url(#clip0_1_3839)">
<path d="M36.8742 70.7393L10.1154 70.7419C8.90928 70.7429 7.65173 70.8176 6.45636 70.6616C1.93407 70.0719 1.49943 66.4925 1.5 62.9364L1.50111 16.4551C1.50202 11.9246 1.56616 7.7892 7.1004 7.00026L85.8501 7C89.2425 7.00311 92.7597 7.48295 93.3526 11.8155C93.6006 13.6269 93.4611 15.6009 93.4595 17.4293L93.4616 62.0563C93.468 68.6756 92.3732 70.7561 85.5104 70.7437L57.8607 70.7393C59.1092 72.1032 60.0249 73.28 60.6039 75.0693C61.0704 76.8428 61.0311 78.5634 61.0311 80.3787L61.028 84.4718L65.0407 84.4667C65.8159 84.4656 67.3083 84.2319 67.9448 84.7954C68.9285 85.6663 68.1396 86.8716 67.0296 86.942C65.1425 87.0617 63.1812 86.9589 61.2866 86.9591L34.8024 86.9599C32.3114 86.9602 29.7932 87.0477 27.3062 86.9597C24.8965 84.6426 28.0275 84.4586 29.7051 84.4651L33.8376 84.4718L33.8347 79.9299C33.8337 76.0539 34.1323 73.7269 36.8742 70.7393ZM86.0767 9.46736L10.4647 9.46477C3.57829 9.4614 3.99784 10.4374 3.99681 17.3881L3.99732 47.4788C3.99753 50.7605 3.85604 54.0793 3.99779 57.3566H9.03044H90.9912L90.9917 17.4488C90.9912 13.4331 91.8468 9.2777 86.4931 9.45233L86.0767 9.46736ZM4.75289 59.8744H3.99779C3.99443 61.2868 3.83197 64.5314 4.12832 65.7243C4.88647 68.7751 7.91523 68.2074 10.2919 68.2087L81.8788 68.2131C83.8037 68.2155 88.1609 68.6754 89.6688 67.5639C91.6031 65.8108 90.9997 62.333 90.9912 59.8744H4.75289ZM49.846 70.7393L45.8021 70.7359C38.5585 70.7129 36.3054 73.1079 36.3038 80.3963L36.3064 84.4718H45.1157H58.522L58.5253 80.3294C58.5253 77.4058 58.5062 75.1149 56.3009 72.8983C54.6385 71.2274 52.1764 70.3717 49.846 70.7393Z" fill="#1D809A"/>
<path d="M28.6234 21.4434C28.6977 19.5682 28.0567 18.128 30.4562 18.0068C37.5698 17.9921 42.4927 18.2494 48.1138 22.862C52.4699 18.2364 59.49 17.9117 65.4411 18.0146C67.7567 18.0546 67.4339 19.3198 67.3802 21.2339C68.3563 21.225 70.1946 20.9879 70.9696 21.6417C71.7278 22.2816 71.3646 26.5698 71.3649 27.5772L71.3633 44.0996C71.3628 47.6582 72.4322 49.3119 68.597 49.2103H51.3792C49.481 51.7283 46.6241 51.4611 44.6855 49.2103L32.6766 49.2127C30.5993 49.2127 28.4952 49.2861 26.4226 49.1983C23.7681 49.086 24.6482 46.3214 24.6487 44.0667L24.6472 27.4265C24.6451 21.7971 23.3264 21.3977 28.6234 21.4434ZM31.5811 20.5255C30.8869 20.5974 31.1995 22.0588 31.195 22.5796L31.1903 42.5703C36.3184 42.5577 42.1371 42.4475 46.5483 45.4989L46.7368 45.6355C47.0118 45.4059 46.8046 44.0698 46.8046 43.6882L46.8098 25.1481C42.4721 21.3008 37.4244 20.1925 31.639 20.5216L31.5811 20.5255ZM61.2904 20.5255C56.708 21.0897 52.8834 21.6628 49.3668 25.1481C49.317 27.431 49.3665 29.7246 49.3665 32.0085L49.3668 45.6752C50.1053 45.1758 50.84 44.726 51.6521 44.3522C55.8291 42.6006 60.3819 42.5601 64.8368 42.5703V20.5255C63.6561 20.5216 62.4706 20.4952 61.2904 20.5255ZM67.3802 23.8211C67.3158 28.5476 67.3779 33.284 67.3784 38.0115L67.3857 41.795C67.3894 43.0261 67.8195 44.8817 66.1567 45.0932C61.3955 45.6992 57.7696 44.5922 52.5057 46.6262C53.0526 46.6325 53.6027 46.6513 54.1489 46.6262H68.8501V23.8211H67.3802ZM27.2002 24.0518V46.6262L42.0086 46.6362C42.5037 46.6393 43.0751 46.6981 43.5632 46.6262L43.5004 46.6014C40.4339 45.4284 36.6156 45.1436 33.3594 45.1387C32.3077 45.1371 29.2319 45.6572 28.7504 44.43C28.4636 43.6989 28.6247 37.4319 28.6247 36.1178L28.6234 24.0518H27.2002Z" fill="#1D809A"/>
<path d="M52.3854 29.9816C50.9118 30.161 49.907 28.9924 50.8943 28.0037C52.169 26.727 57.778 26.0543 59.6718 26.0171C60.6072 25.8967 61.8482 26.4113 61.4088 27.5778C60.9592 28.7706 59.0664 28.4629 58.0709 28.5425C56.2311 28.6899 54.0517 29.1823 52.3854 29.9816Z" fill="#1D809A"/>
<path d="M42.5844 29.9848C41.9621 30.1392 39.1693 29.0741 38.2194 28.8737C36.7291 28.5589 34.5719 28.6794 33.4011 28.3476C32.1245 27.9859 32.302 26.5362 33.3227 26.0142C35.2852 25.8902 42.3085 26.5735 43.3605 28.2518C43.7896 28.9364 43.1425 29.6482 42.5844 29.9848Z" fill="#1D809A"/>
<path d="M52.3789 37.9617C50.8608 38.2447 49.9131 36.897 50.9108 35.9374C52.1937 34.7037 57.8466 34.012 59.7209 34.0323C61.8394 33.7142 61.9242 35.8408 60.7199 36.2381C58.328 37.0273 55.888 36.087 52.3789 37.9617Z" fill="#1D809A"/>
<path d="M42.5537 37.9995C42.4492 38.0295 37.2063 36.6976 36.2237 36.6024C35.3009 36.513 34.1676 36.6212 33.2935 36.3247C32.1497 35.9363 32.3215 34.4584 33.3046 34.0147C35.3516 33.8922 42.2151 34.529 43.3067 36.207C43.8138 36.9866 43.2389 37.6449 42.5537 37.9995Z" fill="#1D809A"/>
<path d="M49.2527 65.9436C48.2753 65.9532 46.1126 66.1413 45.2928 65.7723C43.9201 65.1546 44.4936 63.4751 45.7689 63.0604C46.7609 63.0272 48.9629 62.859 49.7852 63.2869C51.0519 63.9463 50.4852 65.663 49.2527 65.9436Z" fill="#1D809A"/>
</g>
<defs>
<clipPath id="clip0_1_3839">
<rect width="92" height="80" fill="white" transform="translate(1.5 7)"/>
</clipPath>
</defs>
</svg>
