<svg width="95" height="94" viewBox="0 0 95 94" fill="none" xmlns="http://www.w3.org/2000/svg">
<g clip-path="url(#clip0_1_3827)">
<path d="M45.9246 30.0349C47.667 30.0004 49.4163 30.0337 51.1591 30.0319C52.0996 30.031 53.3585 29.9448 54.2717 30.0596C54.528 30.0919 54.7531 30.1542 54.9668 30.3228C55.0017 30.3501 55.0352 30.3793 55.0673 30.4104C55.0996 30.4416 55.1303 30.4746 55.1595 30.5092C55.1886 30.5438 55.2161 30.5799 55.242 30.6177C55.2679 30.6555 55.292 30.6947 55.3143 30.7352C55.3366 30.7756 55.3569 30.8173 55.3755 30.8602C55.3939 30.903 55.4103 30.9467 55.4248 30.9914C55.4393 31.0361 55.4517 31.0815 55.462 31.1276C55.4723 31.1738 55.4805 31.2203 55.4866 31.2674C55.4927 31.3152 55.4968 31.3633 55.4987 31.4116C55.5006 31.4598 55.5004 31.508 55.4981 31.5563C55.4956 31.6045 55.4911 31.6525 55.4845 31.7004C55.4778 31.7481 55.469 31.7953 55.4582 31.8421C55.4472 31.8889 55.4343 31.9349 55.4194 31.9803C55.4044 32.0256 55.3874 32.07 55.3684 32.1134C55.3495 32.1569 55.3286 32.1992 55.3059 32.2404C55.2832 32.2815 55.2587 32.3212 55.2324 32.3597C54.9556 32.758 54.5689 32.8986 54.1382 32.9499C52.3105 32.9939 50.4773 32.9572 48.649 32.9586C47.7307 32.9594 46.6015 33.0667 45.7088 32.9326C45.4297 32.8908 45.1636 32.7801 44.9487 32.5728C44.6832 32.3166 44.5149 31.9617 44.5007 31.5681C44.4993 31.52 44.5 31.4719 44.5028 31.4239C44.5055 31.3759 44.5104 31.3281 44.5173 31.2805C44.5242 31.233 44.5332 31.186 44.5443 31.1395C44.5552 31.093 44.5683 31.0472 44.5834 31.0021C44.5984 30.957 44.6153 30.9127 44.6342 30.8694C44.653 30.8262 44.6737 30.7841 44.6963 30.743C44.7187 30.7019 44.7429 30.6622 44.7689 30.6237C44.795 30.5854 44.8226 30.5484 44.8518 30.513C45.1591 30.1414 45.4943 30.0627 45.9246 30.0349Z" fill="#1D809A"/>
<path d="M69.9811 30.0198C72.363 29.9722 74.7529 30.0259 77.1356 30.0223L79.6919 30.0113C80.175 30.0093 80.6856 29.976 81.1654 30.0354C81.4812 30.0745 81.786 30.1733 82.038 30.3894C82.3046 30.6179 82.4592 30.9392 82.4924 31.3029C82.5272 31.6857 82.4437 32.0913 82.2085 32.3872C81.8954 32.7807 81.5306 32.9251 81.0643 32.9676C80.1411 33.0036 79.2104 32.9793 78.2863 32.9793L73.5684 32.977C72.8357 32.9713 72.103 32.9733 71.3703 32.9827C70.8729 32.9887 70.354 33.0274 69.8602 32.9647C69.5305 32.9228 69.2071 32.7987 68.9508 32.5667C68.9169 32.5365 68.8847 32.5045 68.8539 32.4705C68.8232 32.4367 68.7942 32.4011 68.7669 32.3639C68.7397 32.3267 68.7144 32.2881 68.6909 32.248C68.6675 32.2079 68.6462 32.1666 68.6268 32.1241C68.6075 32.0815 68.5904 32.0379 68.5753 31.9934C68.5603 31.9489 68.5475 31.9036 68.5369 31.8576C68.5264 31.8117 68.5181 31.7652 68.5121 31.7183C68.506 31.6714 68.5024 31.6242 68.501 31.5768C68.4868 31.1839 68.6203 30.777 68.8696 30.4886C69.1848 30.1244 69.5428 30.0487 69.9811 30.0198Z" fill="#1D809A"/>
<path d="M66.6043 39.0449C67.4345 38.977 68.283 39.0186 69.1155 39.0196L73.3895 39.0205L77.8633 39.0207C78.6032 39.0205 79.3679 38.972 80.1046 39.0241C80.3435 39.0411 80.5844 39.0898 80.8016 39.207C81.0962 39.366 81.3252 39.6374 81.4315 39.9866C81.4453 40.033 81.457 40.0801 81.4667 40.1279C81.4765 40.1757 81.4841 40.2238 81.4895 40.2725C81.495 40.3211 81.4983 40.3698 81.4995 40.4188C81.5007 40.4678 81.4998 40.5167 81.4968 40.5655C81.4937 40.6144 81.4885 40.6629 81.4812 40.7112C81.4739 40.7594 81.4645 40.8072 81.453 40.8545C81.4416 40.9018 81.4281 40.9483 81.4125 40.994C81.397 41.0398 81.3794 41.0846 81.3599 41.1284C81.1617 41.5747 80.845 41.7967 80.434 41.9427C79.7077 42.0239 78.9531 41.981 78.2238 41.9799L74.5483 41.9781L69.6373 41.9797C68.7702 41.9811 67.8862 42.0263 67.0207 41.9772C66.7401 41.9611 66.4039 41.9263 66.159 41.7651C65.8551 41.5646 65.6239 41.2753 65.5367 40.8857C65.4473 40.4852 65.5263 40.0106 65.7181 39.6607C65.9161 39.2997 66.2541 39.1396 66.6043 39.0449Z" fill="#1D809A"/>
<path d="M37.8796 16.0282C39.0975 15.9742 40.332 16.0193 41.5513 16.0196L48.4796 16.0208L53.4796 16.0197C54.3488 16.0195 55.2541 15.9633 56.1194 16.0416C56.4586 16.0724 56.723 16.1262 57.001 16.3598C57.3014 16.6122 57.452 17.0094 57.4944 17.4159C57.5308 17.7645 57.3841 18.1441 57.1924 18.4126C56.926 18.7857 56.6023 18.917 56.1868 18.9653C54.8022 19.0033 53.4135 18.9793 52.0283 18.9794L44.7572 18.9797L40.2887 18.9818C39.4939 18.9822 38.6738 19.0321 37.8824 18.9649C37.5511 18.9368 37.2973 18.8943 37.0222 18.6721C36.745 18.448 36.5646 18.1261 36.5145 17.75C36.4592 17.3352 36.5639 16.8653 36.8001 16.5345C37.069 16.1579 37.472 16.0679 37.8796 16.0282Z" fill="#1D809A"/>
<path d="M37.8079 23.0236C38.5557 22.9814 39.3163 23.0129 40.0654 23.0133L44.2587 23.0137L57.1486 23.0144L73.7515 23.0151H79.257C80.1396 23.0149 81.0305 22.9831 81.9122 23.0124C82.2461 23.0235 82.585 23.0711 82.8777 23.2603C82.9157 23.285 82.9524 23.3117 82.9878 23.3405C83.0233 23.3693 83.0573 23.4 83.0898 23.4327C83.1221 23.4654 83.1529 23.4999 83.1821 23.5361C83.2113 23.5723 83.2387 23.6102 83.2642 23.6497C83.2897 23.689 83.3133 23.7297 83.335 23.7717C83.3565 23.8139 83.3761 23.8571 83.3935 23.9014C83.411 23.9457 83.4263 23.9908 83.4394 24.0368C83.4526 24.083 83.4635 24.1297 83.4721 24.177C83.4817 24.2286 83.4889 24.2805 83.4935 24.3327C83.4981 24.3851 83.5003 24.4376 83.5 24.4901C83.4995 24.5428 83.4967 24.5951 83.4913 24.6473C83.4859 24.6996 83.478 24.7514 83.4676 24.8029C83.4574 24.8542 83.4446 24.9048 83.4295 24.9546C83.4142 25.0046 83.3967 25.0535 83.3769 25.1013C83.357 25.1492 83.335 25.1959 83.3108 25.2413C83.2865 25.2867 83.26 25.3306 83.2315 25.3729C82.9916 25.7308 82.6688 25.8968 82.2748 25.9541C81.4296 26.0095 80.5726 25.9801 79.7259 25.9798L75.3707 25.9785L61.8694 25.9787L45.7904 25.9785L40.5803 25.974C39.7432 25.9749 38.8938 26.0236 38.0581 25.9854C37.6993 25.9691 37.3393 25.8994 37.0345 25.6779C36.759 25.4774 36.5804 25.1904 36.5233 24.8333C36.4578 24.4222 36.5281 23.9385 36.7603 23.5997C37.0256 23.2122 37.3925 23.0943 37.8079 23.0236Z" fill="#1D809A"/>
<path d="M26.7585 25.0216C26.7711 25.0206 26.7835 25.0195 26.7959 25.0187C26.9892 25.008 27.1826 25.0018 27.3762 25.0003C27.5697 24.9989 27.7631 25.0021 27.9566 25.01C28.15 25.0178 28.343 25.0303 28.5359 25.0474C28.7286 25.0646 28.9208 25.0865 29.1126 25.1129C29.3043 25.1393 29.4953 25.1702 29.6855 25.2058C29.8758 25.2415 30.065 25.2817 30.2533 25.3265C30.4416 25.3712 30.6287 25.4204 30.8147 25.4741C31.0006 25.5278 31.1851 25.5861 31.3681 25.6487C31.5512 25.7113 31.7328 25.7783 31.9127 25.8497C32.0926 25.921 32.2706 25.9967 32.4469 26.0767C32.623 26.1566 32.7972 26.2407 32.9695 26.3291C33.1416 26.4174 33.3115 26.5098 33.4791 26.6064C33.6469 26.7029 33.8122 26.8033 33.9751 26.9079C34.1379 27.0123 34.2981 27.1206 34.4557 27.2329C34.6133 27.345 34.7681 27.461 34.9201 27.5807C35.0722 27.7003 35.2212 27.8236 35.3673 27.9504C35.5159 28.0788 35.6612 28.2107 35.8033 28.3462C35.9453 28.4818 36.084 28.6208 36.2192 28.7632C36.3544 28.9055 36.486 29.0511 36.6139 29.2C36.7419 29.3488 36.8662 29.5007 36.9868 29.6556C37.1072 29.8106 37.2238 29.9685 37.3365 30.1292C37.4493 30.29 37.5579 30.4534 37.6624 30.6194C37.7671 30.7854 37.8676 30.954 37.9639 31.1251C38.0602 31.2961 38.1522 31.4694 38.2399 31.645C38.3277 31.8205 38.4111 31.9981 38.4901 32.1777C38.569 32.3574 38.6435 32.5389 38.7136 32.7223C38.7836 32.9056 38.849 33.0906 38.9098 33.2772C38.9707 33.4637 39.027 33.6517 39.0786 33.8411C39.1301 34.0303 39.177 34.2208 39.2192 34.4124C39.2614 34.6041 39.2988 34.7967 39.3315 34.9902C39.3642 35.1836 39.3921 35.3778 39.4151 35.5726C39.4382 35.7676 39.4564 35.9629 39.4699 36.1587C39.477 36.2583 39.4828 36.3581 39.4875 36.4579C39.492 36.5578 39.4953 36.6577 39.4973 36.7576C39.4995 36.8575 39.5003 36.9574 39.4999 37.0573C39.4995 37.1572 39.4978 37.2571 39.4949 37.357C39.492 37.4569 39.4878 37.5567 39.4823 37.6565C39.4769 37.7563 39.4702 37.856 39.4623 37.9556C39.4543 38.0551 39.4451 38.1547 39.4348 38.2541C39.4244 38.3535 39.4127 38.4527 39.3998 38.5517C39.3869 38.6509 39.3727 38.7498 39.3573 38.8485C39.3419 38.9472 39.3253 39.0458 39.3074 39.1442C39.2895 39.2425 39.2704 39.3405 39.2501 39.4384C39.2297 39.5363 39.2082 39.6338 39.1855 39.7312C39.1626 39.8284 39.1386 39.9254 39.1134 40.0221C39.0882 40.1188 39.0618 40.2152 39.0341 40.3112C39.0066 40.4072 38.9778 40.5029 38.9478 40.5983C38.9177 40.6936 38.8865 40.7885 38.8541 40.883C38.8217 40.9776 38.7881 41.0718 38.7533 41.1654C38.7185 41.2591 38.6826 41.3523 38.6456 41.4451C38.6085 41.5379 38.5702 41.6303 38.5308 41.7221C38.4914 41.8139 38.4508 41.9053 38.409 41.9961C38.3673 42.087 38.3245 42.1773 38.2805 42.267C38.2365 42.3568 38.1915 42.446 38.1453 42.5346C38.099 42.6233 38.0517 42.7114 38.0033 42.7988C37.9549 42.8862 37.9054 42.973 37.8548 43.0593C37.8042 43.1454 37.7525 43.231 37.6997 43.3159C37.647 43.4009 37.5932 43.4851 37.5384 43.5687C37.4835 43.6522 37.4276 43.7351 37.3706 43.8172C37.3137 43.8994 37.2557 43.9809 37.1967 44.0616C37.1378 44.1423 37.0778 44.2222 37.0168 44.3015C36.9559 44.3807 36.8939 44.4592 36.8309 44.5368C36.7679 44.6144 36.704 44.6913 36.6392 44.7675C36.5743 44.8435 36.5085 44.9187 36.4417 44.9931C36.3116 45.1393 36.1779 45.2821 36.0409 45.4217C35.9037 45.5613 35.7632 45.6974 35.6194 45.83C35.4756 45.9627 35.3286 46.0918 35.1784 46.2172C35.0282 46.3427 34.875 46.4644 34.7188 46.5823C34.5626 46.7002 34.4037 46.8143 34.2419 46.9244C34.0801 47.0346 33.9157 47.1407 33.7487 47.2428C33.5817 47.3448 33.4123 47.4428 33.2405 47.5365C33.0686 47.6303 32.8946 47.7198 32.7184 47.8049C32.5422 47.8902 32.364 47.9711 32.1838 48.0475C32.0036 48.124 31.8216 48.196 31.638 48.2635C31.4542 48.3312 31.2689 48.3942 31.0821 48.4526C30.8952 48.5111 30.707 48.5649 30.5175 48.6142C30.3281 48.6633 30.1375 48.7078 29.9459 48.7477C29.7542 48.7876 29.5617 48.8228 29.3682 48.8532C29.1748 48.8837 28.9808 48.9093 28.7862 48.9302C28.5915 48.9511 28.3964 48.9673 28.2009 48.9786C28.0136 48.9897 27.8262 48.9966 27.6386 48.999C27.451 49.0014 27.2634 48.9994 27.0758 48.9929C26.8883 48.9866 26.701 48.9758 26.514 48.9605C26.327 48.9453 26.1405 48.9258 25.9544 48.9018C25.7683 48.8778 25.5828 48.8495 25.3981 48.8168C25.2133 48.7841 25.0294 48.7471 24.8464 48.7058C24.6634 48.6645 24.4814 48.6189 24.3006 48.569C24.1197 48.5192 23.9401 48.4651 23.7618 48.4067C23.5834 48.3485 23.4066 48.286 23.2312 48.2195C23.0558 48.1528 22.8821 48.0821 22.7101 48.0074C22.538 47.9326 22.3678 47.8539 22.1995 47.7711C22.0311 47.6883 21.8648 47.6016 21.7005 47.511C21.5363 47.4205 21.3742 47.3261 21.2144 47.228C21.0546 47.1297 20.8972 47.0278 20.7422 46.9223C20.5871 46.8167 20.4347 46.7075 20.2848 46.5947C20.1349 46.482 19.9878 46.3658 19.8434 46.2461C19.6947 46.1238 19.549 45.998 19.4064 45.8687C19.2638 45.7393 19.1245 45.6066 18.9883 45.4706C18.8521 45.3344 18.7194 45.1951 18.5899 45.0526C18.4605 44.9102 18.3346 44.7646 18.2123 44.616C18.0899 44.4675 17.9712 44.3161 17.8562 44.1618C17.7412 44.0075 17.6299 43.8505 17.5225 43.6908C17.4151 43.5311 17.3116 43.3689 17.2121 43.2041C17.1125 43.0394 17.017 42.8724 16.9255 42.7031C16.8341 42.5338 16.7468 42.3624 16.6636 42.1889C16.5805 42.0153 16.5016 41.8399 16.4269 41.6626C16.3523 41.4851 16.2819 41.3061 16.216 41.1253C16.15 40.9446 16.0884 40.7624 16.0313 40.5786C15.9741 40.395 15.9215 40.21 15.8733 40.0236C15.8251 39.8373 15.7815 39.65 15.7424 39.4616C15.7032 39.2732 15.6687 39.084 15.6388 38.894C15.6089 38.704 15.5835 38.5133 15.5628 38.322C15.2426 35.0926 16.1486 31.8793 18.2296 29.3637C20.4564 26.6719 23.3311 25.3581 26.7585 25.0216ZM27.5377 27.6465C24.9262 27.6921 22.5719 28.6054 20.7343 30.4949C20.6282 30.6047 20.5248 30.717 20.4241 30.832C20.3235 30.9468 20.2258 31.0641 20.1309 31.1838C20.036 31.3035 19.9441 31.4254 19.8552 31.5496C19.7663 31.6738 19.6804 31.8001 19.5977 31.9284C19.515 32.0568 19.4354 32.1871 19.3591 32.3194C19.2828 32.4516 19.2097 32.5857 19.1399 32.7215C19.0702 32.8573 19.0037 32.9947 18.9407 33.1338C18.8776 33.2728 18.818 33.4133 18.7619 33.5553C18.7057 33.6973 18.6531 33.8406 18.6039 33.9851C18.5548 34.1296 18.5092 34.2753 18.4672 34.4221C18.4252 34.5689 18.3868 34.7166 18.352 34.8652C18.3173 35.0139 18.2861 35.1633 18.2587 35.3134C18.2312 35.4637 18.2075 35.6144 18.1874 35.7657C18.1673 35.917 18.151 36.0688 18.1384 36.2209C18.1257 36.3731 18.1168 36.5255 18.1116 36.678C18.1065 36.8306 18.105 36.9832 18.1073 37.1358C18.1096 37.2895 18.1156 37.4429 18.1254 37.5962C18.1352 37.7495 18.1487 37.9025 18.166 38.0552C18.1833 38.2079 18.2044 38.3601 18.2292 38.5117C18.254 38.6633 18.2825 38.8143 18.3147 38.9645C18.347 39.1147 18.3829 39.2641 18.4224 39.4126C18.462 39.561 18.5052 39.7084 18.552 39.8547C18.5989 40.0011 18.6493 40.1462 18.7033 40.2901C18.7572 40.4339 18.8147 40.5764 18.8757 40.7175C18.9367 40.8585 19.0011 40.998 19.0689 41.1359C19.1368 41.2738 19.208 41.4099 19.2825 41.5443C19.3571 41.6788 19.4349 41.8112 19.5159 41.9418C19.597 42.0723 19.6812 42.2008 19.7686 42.3273C19.856 42.4538 19.9465 42.578 20.04 42.6999C20.1335 42.822 20.2299 42.9416 20.3293 43.0588C20.4287 43.1761 20.5309 43.2909 20.6359 43.4032C20.741 43.5153 20.8487 43.6249 20.9591 43.7319C22.7357 45.4507 25.0194 46.3276 27.4766 46.3831C30.1019 46.3224 32.4803 45.3478 34.3053 43.4401C34.4116 43.3286 34.515 43.2146 34.6156 43.098C34.7162 42.9814 34.8139 42.8624 34.9085 42.741C35.0033 42.6196 35.0949 42.496 35.1835 42.37C35.2721 42.2441 35.3576 42.1161 35.4398 41.986C35.5221 41.8559 35.6011 41.7238 35.6769 41.5897C35.7526 41.4557 35.8249 41.3199 35.8939 41.1822C35.9629 41.0447 36.0285 40.9055 36.0906 40.7646C36.1528 40.6237 36.2114 40.4814 36.2665 40.3377C36.3215 40.194 36.373 40.049 36.4209 39.9026C36.4688 39.7564 36.513 39.609 36.5536 39.4605C36.5943 39.3121 36.6313 39.1627 36.6644 39.0124C36.6977 38.8622 36.7272 38.7112 36.7529 38.5595C36.7788 38.4077 36.8008 38.2554 36.819 38.1025C36.8372 37.9497 36.8516 37.7965 36.8622 37.643C36.8729 37.4895 36.8797 37.3358 36.8828 37.182C36.8858 37.0281 36.885 36.8742 36.8805 36.7203C36.8758 36.5663 36.8672 36.4125 36.8548 36.259C36.8425 36.1054 36.8264 35.9523 36.8065 35.7996C36.7866 35.6468 36.7629 35.4946 36.7355 35.3431C36.708 35.1915 36.6768 35.0407 36.642 34.8907C36.6072 34.7405 36.5686 34.5914 36.5263 34.4432C36.4841 34.2951 36.4383 34.1481 36.3889 34.0022C36.3394 33.8563 36.2863 33.7117 36.2297 33.5685C36.173 33.4251 36.1129 33.2833 36.0493 33.143C35.9857 33.0026 35.9186 32.864 35.8482 32.727C35.7777 32.59 35.7039 32.4547 35.6267 32.3213C35.5496 32.188 35.4692 32.0565 35.3856 31.9271C35.3019 31.7977 35.2151 31.6704 35.1252 31.5453C35.0353 31.4201 34.9424 31.2973 34.8463 31.1767C34.7504 31.0562 34.6515 30.938 34.5497 30.8223C34.4478 30.7066 34.3432 30.5935 34.2359 30.4829C34.1284 30.3724 34.0184 30.2645 33.9056 30.1594C33.7994 30.0592 33.6908 29.9615 33.5799 29.8663C33.469 29.7712 33.3559 29.6788 33.2406 29.589C33.1253 29.4993 33.0079 29.4124 32.8884 29.3282C32.7689 29.2441 32.6475 29.1629 32.5242 29.0845C32.4009 29.0061 32.2757 28.9307 32.1488 28.8583C32.0218 28.7858 31.8933 28.7164 31.7631 28.6501C31.6329 28.5838 31.5011 28.5207 31.368 28.4606C31.2347 28.4005 31.1 28.3437 30.9641 28.2901C30.8281 28.2364 30.6909 28.186 30.5526 28.1389C30.4142 28.0918 30.2749 28.048 30.1345 28.0075C29.994 27.9669 29.8526 27.9298 29.7104 27.896C29.5682 27.8622 29.4253 27.8319 29.2816 27.8049C29.138 27.7779 28.9938 27.7543 28.849 27.7342C28.7042 27.7141 28.559 27.6974 28.4135 27.6842C28.2679 27.671 28.1221 27.6612 27.976 27.6549C27.83 27.6486 27.6839 27.6458 27.5377 27.6465Z" fill="#1D809A"/>
<path d="M87.8525 46.9705L87.8532 22.9949L87.8512 15.1576C87.8511 13.8786 87.9022 12.5829 87.8509 11.3061C87.8401 11.0353 87.8195 10.7154 87.7126 10.4644C87.5969 10.1927 87.3457 9.91535 87.0599 9.81856C86.4465 9.61076 82.8179 9.7224 81.9671 9.72302L72.642 9.72386L31.2729 9.72086C30.9433 9.72371 30.5401 9.71052 30.2418 9.86592C29.9731 10.0059 29.7401 10.2726 29.6495 10.5626C29.44 11.2336 29.5541 13.7765 29.5555 14.5989L29.5546 20.355C29.5542 21.0149 29.664 22.0439 29.4683 22.6375C29.3572 22.9741 29.1142 23.2621 28.7897 23.411C28.444 23.5697 28.0371 23.5653 27.6874 23.4215C27.4081 23.3064 27.1253 23.0744 27.0167 22.7849C26.93 22.554 26.9128 22.2536 26.9028 22.0086C26.8726 21.2557 26.8979 20.4924 26.8979 19.7384V15.3744L26.8985 12.4299C26.8987 11.8246 26.8703 11.1996 26.9307 10.5972C26.9561 10.3618 27.0015 10.1303 27.067 9.90267C27.1327 9.6751 27.2174 9.45485 27.3213 9.24193C27.3491 9.18423 27.3784 9.12726 27.4091 9.07103C27.4397 9.01478 27.4718 8.95932 27.5052 8.90467C27.5387 8.85002 27.5735 8.79623 27.6096 8.7433C27.6457 8.69037 27.6831 8.63836 27.7218 8.58728C27.7605 8.53622 27.8005 8.48614 27.8417 8.43705C27.8829 8.38795 27.9253 8.33991 27.9689 8.29293C28.0125 8.24594 28.0573 8.20006 28.1031 8.15529C28.149 8.11051 28.196 8.06691 28.244 8.02447C28.2921 7.98203 28.3413 7.94081 28.3914 7.90081C28.4414 7.8608 28.4925 7.82207 28.5446 7.78461C28.5966 7.74713 28.6496 7.71097 28.7034 7.67613C28.7572 7.64129 28.8119 7.60781 28.8675 7.57567C28.923 7.54354 28.9793 7.51281 29.0363 7.48347C29.0934 7.45414 29.1511 7.42623 29.2095 7.39975C29.268 7.37328 29.3271 7.34827 29.3867 7.32472C29.4464 7.30118 29.5067 7.27913 29.5675 7.25858C29.9224 7.14089 30.2865 7.06925 30.6597 7.04367C31.8309 6.95378 33.0607 7.03051 34.2376 7.03056L41.3813 7.03043L63.4804 7.02974L78.8511 7.03069L83.7746 7.02866C84.675 7.02729 85.5862 6.99787 86.4856 7.034C87.1259 7.05974 87.7382 7.18023 88.3137 7.46958C89.6264 8.12946 90.0662 9.10737 90.5 10.4277V53.9725V87H6.5V79.8809V78.4525C6.69686 78.1679 6.92257 76.3626 6.9969 75.9234L8.51105 66.9835C8.79796 65.2916 9.01009 63.3139 9.54229 61.6977C9.65147 61.3693 9.77433 61.0459 9.91086 60.7278C10.0474 60.4097 10.1971 60.0979 10.36 59.7925C10.5229 59.4869 10.6984 59.1887 10.8866 58.898C11.0747 58.6073 11.2748 58.3249 11.4868 58.051C11.5852 57.9241 11.6862 57.7992 11.7898 57.6764C11.8933 57.5536 11.9993 57.4329 12.1078 57.3144C12.2162 57.1958 12.327 57.0796 12.4402 56.9655C12.5534 56.8515 12.6688 56.7398 12.7865 56.6304C12.9043 56.5211 13.0241 56.4142 13.1462 56.3097C13.2683 56.2052 13.3924 56.1032 13.5187 56.0037C13.6449 55.9042 13.7731 55.8073 13.9033 55.713C14.0334 55.6187 14.1654 55.527 14.2993 55.4381C14.4332 55.3492 14.5689 55.263 14.7063 55.1796C14.8437 55.096 14.9827 55.0153 15.1234 54.9375C15.2641 54.8597 15.4063 54.7848 15.55 54.7127C15.6937 54.6406 15.8389 54.5714 15.9854 54.5052C16.132 54.439 16.2798 54.3758 16.4289 54.3155C16.578 54.2553 16.7283 54.1981 16.8797 54.144C17.0312 54.0899 17.1836 54.0389 17.3372 53.9909C17.4907 53.9429 17.6451 53.898 17.8005 53.8564C19.6744 53.3474 21.5643 53.4211 23.4841 53.4229L27.7344 53.424L39.8047 53.4256C40.665 53.426 43.8639 53.5394 44.4075 53.3093C45.0588 53.0336 46.3244 51.6519 46.8843 51.1098C47.9394 50.0882 48.9799 49.018 50.0967 48.0636C51.4293 46.9247 53.1282 46.4165 54.8696 46.5558C54.8761 46.5332 54.8822 46.5106 54.8889 46.4881C55.2231 45.3701 55.6052 44.2607 55.9621 43.1493L58.1997 36.1736L59.3363 32.6338C59.5537 31.9423 59.7314 31.1831 60.0297 30.523C60.1793 30.192 60.3999 29.8935 60.7322 29.7276C61.0254 29.5811 61.3426 29.5829 61.6483 29.6906C61.9977 29.8136 62.3096 30.0417 62.4634 30.3862C62.6115 30.7182 62.5856 31.0761 62.508 31.4217C62.329 32.22 61.9987 33.015 61.7461 33.7944L60.2428 38.5069L58.4012 44.2573C58.0752 45.2765 57.7882 46.3382 57.3992 47.3338C58.3584 47.9173 59.1491 48.6242 59.7402 49.5853C60.7076 51.1586 60.8721 52.9359 60.438 54.7063C61.6291 54.6096 62.9659 54.6868 64.1755 54.6865L71.1503 54.6888C71.187 53.3784 71.1541 52.0627 71.1593 50.7516C71.1638 49.6215 71.2637 48.6637 72.115 47.8343C72.5079 47.4514 73.0323 47.151 73.5753 47.0479C74.2291 46.9237 74.9275 46.9654 75.5903 46.9654L78.2549 46.9652L87.8525 46.9705ZM58.894 57.3909C58.2794 57.917 57.7065 58.5039 57.1221 59.0633L54.0676 61.99C53.1759 62.8481 52.2997 63.7406 51.2684 64.4346C50.9968 64.6188 50.7172 64.7899 50.4295 64.9478C50.1419 65.1057 49.8474 65.2498 49.5461 65.3802C49.2448 65.5104 48.9382 65.6263 48.626 65.7277C48.3137 65.8293 47.9974 65.916 47.6771 65.9878C47.1004 66.118 46.5168 66.1962 45.926 66.2223C44.8885 66.2697 39.7402 66.1278 39.31 66.3134C39.1197 66.3956 39.0928 66.7075 39.0769 66.886C38.9929 67.8322 39.0728 69.1208 39.0731 70.1115L39.0712 76.742C39.0715 77.8015 39.1937 79.2116 38.933 80.2244C38.7401 80.9732 38.2822 81.6889 37.6978 82.1935C37.6245 82.2578 37.549 82.3194 37.4712 82.3783C37.3934 82.4371 37.3135 82.493 37.2317 82.5462C37.1499 82.5992 37.0662 82.6493 36.9807 82.6964C36.8953 82.7434 36.8082 82.7873 36.7195 82.828C36.6308 82.8688 36.5408 82.9063 36.4494 82.9405C36.358 82.9747 36.2655 83.0056 36.1719 83.0332C36.0782 83.0608 35.9837 83.0849 35.8884 83.1057C35.793 83.1264 35.6969 83.1436 35.6003 83.1574C34.5498 83.3022 33.1213 83.2048 32.0357 83.2053L24.7467 83.205L14.9946 83.2058L11.933 83.2061C11.3652 83.206 10.7821 83.2313 10.2166 83.1845C10.1492 83.1792 10.0821 83.1722 10.0152 83.1636C9.94821 83.155 9.88151 83.1447 9.81506 83.1327C9.74862 83.1207 9.68252 83.107 9.61676 83.0918C9.55099 83.0765 9.48565 83.0596 9.42074 83.0412C9.35583 83.0226 9.29141 83.0025 9.22751 82.9808C9.1636 82.9591 9.10027 82.9358 9.03752 82.9109C8.97477 82.8861 8.91269 82.8597 8.85126 82.8317C8.78984 82.8038 8.72915 82.7743 8.6692 82.7434C8.60925 82.7124 8.55011 82.6799 8.49178 82.646C8.43345 82.6121 8.37601 82.5767 8.31945 82.5399C8.2629 82.5032 8.20729 82.465 8.15263 82.4254C8.09799 82.3859 8.04436 82.3451 7.99175 82.3028C7.93914 82.2606 7.88762 82.2171 7.83719 82.1722C7.78676 82.1275 7.73748 82.0815 7.68935 82.0343C7.64122 81.9871 7.5943 81.9387 7.54859 81.8891C7.50288 81.8396 7.45843 81.7889 7.41526 81.7371C7.16569 81.4424 6.92353 81.0776 6.79184 80.7137C6.70512 80.474 6.64492 80.0811 6.5 79.8809V87H90.5V53.9725C90.3815 54.2902 90.292 54.6188 90.1588 54.9307C89.7299 55.9341 88.9832 56.6095 88.0002 57.0588C87.6578 57.2153 87.2809 57.2873 86.9072 57.3252C86.1327 57.4043 85.3296 57.3668 84.5518 57.3663L80.8018 57.3655L66.0859 57.3634L61.392 57.3635C60.5699 57.3638 59.7124 57.3192 58.894 57.3909ZM53.8785 49.2147C53.3646 49.298 52.9141 49.3978 52.4557 49.6513C51.768 50.0316 51.2052 50.6442 50.6448 51.1851L47.8748 53.8467C47.3406 54.3566 46.8106 54.9331 46.2057 55.3566C45.7946 55.6445 45.3208 55.8759 44.8281 55.9825C44.0803 56.1446 43.2546 56.0891 42.4914 56.0892L39.6447 56.0879L27.9597 56.0881L23.6404 56.086C21.8451 56.0845 20.0003 55.9803 18.2576 56.4915C18.1354 56.5279 18.014 56.5669 17.8935 56.6083C17.7729 56.6498 17.6532 56.6937 17.5344 56.7401C17.4156 56.7864 17.2979 56.8352 17.1811 56.8863C17.0644 56.9375 16.9487 56.991 16.8341 57.0469C16.7196 57.1028 16.6062 57.1611 16.494 57.2216C16.3819 57.2822 16.271 57.345 16.1614 57.41C16.0518 57.4751 15.9437 57.5424 15.8368 57.6119C15.73 57.6814 15.6247 57.7531 15.5208 57.827C15.417 57.9008 15.3147 57.9767 15.214 58.0547C15.1132 58.1327 15.0141 58.2128 14.9167 58.295C14.8193 58.377 14.7235 58.461 14.6296 58.547C14.5356 58.6329 14.4434 58.7208 14.353 58.8106C14.2627 58.9004 14.1742 58.992 14.0876 59.0854C14.001 59.1787 13.9164 59.2739 13.8337 59.3708C13.751 59.4676 13.6704 59.5661 13.5917 59.6663C13.5131 59.7664 13.4366 59.8682 13.3622 59.9715C13.2022 60.1921 13.0526 60.4195 12.9133 60.6537C12.7739 60.8878 12.6455 61.1277 12.5279 61.3734C12.4103 61.6192 12.3041 61.8697 12.2093 62.125C12.1144 62.3803 12.0313 62.6393 11.9599 62.9021C11.707 63.8102 11.5808 64.7606 11.4233 65.6888L10.7036 69.9358L9.68417 75.9617C9.52293 76.9154 9.3161 77.8778 9.19461 78.8358C9.16779 79.0472 9.15624 79.2666 9.19356 79.4772C9.25407 79.8189 9.48887 80.1352 9.78095 80.318C9.97278 80.438 10.1775 80.4849 10.4 80.51C11.0472 80.5823 11.7358 80.538 12.3886 80.537L15.9786 80.5327L17.1914 73.3528C17.3453 72.428 17.5422 71.5026 17.6678 70.5741C17.7908 69.8564 17.9555 68.2648 18.2201 67.6556C18.3178 67.4306 18.4651 67.2275 18.6676 67.0856C18.9599 66.8806 19.3469 66.8264 19.6935 66.8948C19.7365 66.9037 19.7789 66.9146 19.8207 66.9276C19.8626 66.9406 19.9037 66.9557 19.9441 66.9727C19.9844 66.9898 20.0238 67.0089 20.0623 67.0298C20.1008 67.0508 20.1381 67.0736 20.1743 67.0982C20.2105 67.1229 20.2454 67.1493 20.279 67.1774C20.3126 67.2056 20.3447 67.2353 20.3754 67.2665C20.406 67.2978 20.435 67.3305 20.4624 67.3646C20.4898 67.3988 20.5155 67.4342 20.5394 67.4708C20.6586 67.6566 20.7119 67.8528 20.7199 68.0719C20.7494 68.8772 20.5005 69.7949 20.3647 70.5926C20.2707 71.1446 20.2056 71.7275 20.0713 72.2696C20.0566 72.3293 20.0408 72.3886 20.0237 72.4475C21.5176 72.5004 23.0232 72.467 24.5183 72.4639C25.3884 72.4621 26.3827 72.3683 27.2291 72.5797C27.3012 72.598 27.3726 72.6187 27.4432 72.6421C27.5139 72.6653 27.5836 72.6911 27.6524 72.7193C27.7211 72.7477 27.7887 72.7784 27.8554 72.8115C27.922 72.8446 27.9873 72.8801 28.0513 72.9178C28.1153 72.9556 28.178 72.9956 28.2391 73.0379C28.3002 73.0802 28.3598 73.1245 28.4178 73.171C28.4757 73.2175 28.532 73.2659 28.5864 73.3165C28.6409 73.3671 28.6935 73.4195 28.7442 73.4737C28.8276 73.563 28.905 73.6571 28.9764 73.7562C29.0478 73.8551 29.1127 73.9582 29.171 74.0654C29.2293 74.1726 29.2806 74.283 29.3249 74.3967C29.3692 74.5103 29.4061 74.6264 29.4358 74.7447C29.6596 75.642 29.5582 76.6734 29.5573 77.5955C29.5565 78.5664 29.5708 79.5402 29.5514 80.511C30.8242 80.5556 32.1016 80.5311 33.3752 80.5304C33.9869 80.5301 34.6835 80.6091 35.2831 80.4977C35.5622 80.4458 35.8116 80.33 36.0191 80.1349C36.4147 79.7633 36.4147 79.1229 36.4183 78.6188L36.4125 70.0358C36.4119 68.9762 36.3098 67.001 36.4939 66.0663C36.6188 65.4325 36.909 64.8868 37.372 64.4332C37.4618 64.3438 37.5573 64.261 37.6586 64.1846C37.7598 64.1082 37.8657 64.0391 37.9764 63.9773C38.0871 63.9153 38.2015 63.8612 38.3196 63.8151C38.4377 63.7688 38.5585 63.7308 38.6818 63.701C39.416 63.5176 40.2019 63.5647 40.9528 63.5657L44.0383 63.5706C44.9848 63.5719 45.9449 63.6027 46.8796 63.4302C47.1272 63.3849 47.3719 63.3273 47.6137 63.2574C47.8556 63.1874 48.0932 63.1054 48.3268 63.0114C48.5603 62.9174 48.7884 62.8118 49.0111 62.6946C49.2338 62.5776 49.4501 62.4496 49.6598 62.3106C50.0093 62.0799 50.3417 61.8268 50.6569 61.5511C51.3024 60.9902 51.904 60.3703 52.5199 59.7772L54.8656 57.5465C55.5626 56.8744 56.9123 55.7016 57.4061 54.9804C57.8009 54.4039 58.013 53.6886 58.0253 52.9928C58.0265 52.931 58.0262 52.8691 58.0245 52.8072C58.0226 52.7455 58.0192 52.6838 58.0143 52.622C58.0094 52.5604 58.0029 52.4989 57.9948 52.4376C57.9868 52.3763 57.9773 52.3152 57.9662 52.2543C57.9552 52.1934 57.9426 52.1329 57.9285 52.0727C57.9145 52.0123 57.899 51.9524 57.8819 51.893C57.8647 51.8335 57.8461 51.7746 57.8261 51.7161C57.8061 51.6575 57.7847 51.5995 57.7618 51.542C57.7389 51.4845 57.7145 51.4276 57.6888 51.3713C57.663 51.3151 57.6358 51.2595 57.6073 51.2045C57.5787 51.1497 57.5489 51.0955 57.5177 51.042C57.4864 50.9886 57.4538 50.936 57.4199 50.8841C57.3861 50.8324 57.351 50.7815 57.3146 50.7315C57.2782 50.6814 57.2405 50.6322 57.2015 50.584C57.1627 50.5358 57.1227 50.4886 57.0815 50.4425C57.0402 50.3962 56.9978 50.351 56.9543 50.307C56.2767 49.6187 55.301 49.2007 54.3309 49.1999C54.18 49.1999 54.0292 49.2048 53.8785 49.2147ZM74.4806 49.6702C74.3264 49.673 74.0586 49.6477 73.9504 49.7792C73.8485 49.9034 73.8324 50.1126 73.8194 50.2669C73.7773 50.7647 73.8068 51.2824 73.8071 51.7827L73.8093 54.6656C76.5299 54.7387 79.264 54.6898 81.9863 54.6898L84.7785 54.689C85.5064 54.6886 86.3563 54.7763 87.0601 54.5772C87.433 54.327 87.7036 54.0836 87.7953 53.6232C87.9111 53.0409 87.8566 52.3865 87.8561 51.7925C87.8556 51.0828 87.8709 50.368 87.8463 49.6589L78.6816 49.6504C77.2867 49.6504 75.8735 49.6041 74.4806 49.6702ZM19.6229 75.1267C19.4537 75.729 19.3761 76.3687 19.2724 76.9853C19.0738 78.1674 18.892 79.3547 18.6723 80.5329L25.8902 80.5334C26.2249 80.5345 26.5635 80.525 26.8979 80.5427C26.89 79.6757 26.9962 75.8351 26.8344 75.305C26.2784 74.9 20.7963 75.2685 19.6229 75.1267Z" fill="#1D809A"/>
<path d="M59.6804 62.0155C60.0265 61.9815 60.3159 61.9973 60.6382 62.1239C60.956 62.2485 61.2655 62.4934 61.3743 62.7929C61.5775 63.352 61.4733 65.4439 61.4733 66.1733V71.4054L61.4722 78.1821C61.472 79.3461 61.519 80.5253 61.4647 81.6872C61.4549 81.8966 61.4084 82.0723 61.3033 82.2619C61.0875 82.6513 60.7116 82.857 60.2603 82.9913C59.961 83.0146 59.7164 82.9949 59.437 82.8862C59.1161 82.7613 58.7614 82.5115 58.641 82.2103C58.412 81.637 58.5308 78.6967 58.5308 77.8796V71.5862L58.5312 66.1949C58.5313 65.2494 58.4925 64.2903 58.5411 63.3466C58.5551 63.076 58.5956 62.8405 58.7536 62.6021C58.9661 62.2816 59.2861 62.1141 59.6804 62.0155Z" fill="#1D809A"/>
</g>
<defs>
<clipPath id="clip0_1_3827">
<rect width="84" height="80" fill="white" transform="translate(6.5 7)"/>
</clipPath>
</defs>
</svg>
