<svg width="24" height="25" viewBox="0 0 24 25" fill="none" xmlns="http://www.w3.org/2000/svg">
<path fill-rule="evenodd" clip-rule="evenodd" d="M3.23492 4.44461C4.49354 3.12103 4.93835 2.7498 5.47469 2.57703C5.84587 2.47994 6.23515 2.47455 6.60888 2.56133C7.10089 2.70411 7.23104 2.81262 8.84437 4.41748C10.2617 5.82673 10.4033 5.97951 10.5392 6.25507C10.799 6.73878 10.8396 7.3102 10.6508 7.82566C10.5077 8.21831 10.3047 8.47817 9.44507 9.33914L8.88441 9.90027C8.73718 10.0496 8.70257 10.2765 8.7986 10.4628C10.0443 12.5844 11.8115 14.3535 13.9332 15.6029C14.1774 15.7335 14.4782 15.6913 14.6769 15.4987L15.2161 14.969C15.5494 14.628 15.9023 14.3066 16.2731 14.0067C16.8554 13.6497 17.581 13.6179 18.1925 13.9224C18.4914 14.0652 18.5901 14.1537 20.0518 15.6101C21.5593 17.1107 21.6022 17.1578 21.7681 17.5019C22.0803 18.0716 22.0771 18.7614 21.7595 19.3281C21.5979 19.6479 21.4992 19.7636 20.6511 20.6288C20.1391 21.1514 19.6571 21.6283 19.5798 21.6983C18.8802 22.2766 17.9825 22.5603 17.0769 22.4893C15.42 22.3385 13.8163 21.8273 12.3785 20.9915C9.19354 19.307 6.48217 16.8525 4.49211 13.8525C4.05867 13.2246 3.67331 12.565 3.33933 11.8792C2.4434 10.3463 1.98073 8.59945 2.00061 6.82477C2.06901 5.89635 2.51501 5.03632 3.23492 4.44461Z" stroke="white" stroke-width="1.5" stroke-linecap="round" stroke-linejoin="round"/>
</svg>
