<svg width="72" height="72" viewBox="0 0 72 72" fill="none" xmlns="http://www.w3.org/2000/svg">
<path d="M45.7815 27.2567C45.7815 26.6952 45.33 26.24 44.7731 26.24C44.2162 26.24 43.7647 26.6952 43.7647 27.2567V37.0167H49.4118C49.9687 37.0167 50.4202 36.5615 50.4202 36C50.4202 35.4385 49.9687 34.9833 49.4118 34.9833H45.7815V27.2567Z" fill="#1D809A"/>
<path d="M44.7731 19.3267C45.33 19.3267 45.7815 19.7818 45.7815 20.3433V22.3767C45.7815 22.9381 45.33 23.3933 44.7731 23.3933C44.2162 23.3933 43.7647 22.9381 43.7647 22.3767V20.3433C43.7647 19.7818 44.2162 19.3267 44.7731 19.3267Z" fill="#1D809A"/>
<path d="M45.7815 49.6233C45.7815 49.0618 45.33 48.6067 44.7731 48.6067C44.2162 48.6067 43.7647 49.0618 43.7647 49.6233V51.6567C43.7647 52.2181 44.2162 52.6733 44.7731 52.6733C45.33 52.6733 45.7815 52.2181 45.7815 51.6567V49.6233Z" fill="#1D809A"/>
<path d="M61.3109 36C61.3109 36.5615 60.8594 37.0167 60.3025 37.0167H58.2857C57.7288 37.0167 57.2773 36.5615 57.2773 36C57.2773 35.4385 57.7288 34.9833 58.2857 34.9833H60.3025C60.8594 34.9833 61.3109 35.4385 61.3109 36Z" fill="#1D809A"/>
<path d="M31.2605 37.0167C31.8174 37.0167 32.2689 36.5615 32.2689 36C32.2689 35.4385 31.8174 34.9833 31.2605 34.9833H29.2437C28.6868 34.9833 28.2353 35.4385 28.2353 36C28.2353 36.5615 28.6868 37.0167 29.2437 37.0167H31.2605Z" fill="#1D809A"/>
<path d="M56.4671 24.2105C56.8609 24.6076 56.8609 25.2513 56.4671 25.6483L55.041 27.0861C54.6472 27.4832 54.0087 27.4831 53.6149 27.0861C53.2211 26.6891 53.2211 26.0454 53.6149 25.6483L55.041 24.2105C55.4348 23.8135 56.0733 23.8135 56.4671 24.2105Z" fill="#1D809A"/>
<path d="M35.9311 46.3518C36.325 45.9548 36.325 45.311 35.9311 44.914C35.5373 44.517 34.8988 44.517 34.505 44.914L33.0789 46.3518C32.6851 46.7488 32.6851 47.3925 33.0789 47.7896C33.4728 48.1866 34.1112 48.1866 34.505 47.7896L35.9311 46.3518Z" fill="#1D809A"/>
<path d="M33.0795 24.2105C33.4733 23.8135 34.1118 23.8135 34.5056 24.2105L35.9317 25.6483C36.3255 26.0454 36.3255 26.6891 35.9317 27.0861C35.5379 27.4831 34.8994 27.4831 34.5056 27.0861L33.0795 25.6483C32.6857 25.2513 32.6857 24.6076 33.0795 24.2105Z" fill="#1D809A"/>
<path d="M55.0408 44.914C54.647 44.517 54.0085 44.517 53.6147 44.914C53.2209 45.311 53.2209 45.9548 53.6147 46.3518L55.0408 47.7896C55.4346 48.1866 56.0731 48.1866 56.4669 47.7896C56.8607 47.3925 56.8607 46.7488 56.4669 46.3518L55.0408 44.914Z" fill="#1D809A"/>
<path fill-rule="evenodd" clip-rule="evenodd" d="M44.7731 56.9433C56.2458 56.9433 65.5462 47.5667 65.5462 36C65.5462 24.4333 56.2458 15.0567 44.7731 15.0567C33.3004 15.0567 24 24.4333 24 36C24 47.5667 33.3004 56.9433 44.7731 56.9433ZM44.7731 54.91C55.1319 54.91 63.5294 46.4437 63.5294 36C63.5294 25.5563 55.1319 17.09 44.7731 17.09C34.4143 17.09 26.0168 25.5563 26.0168 36C26.0168 46.4437 34.4143 54.91 44.7731 54.91Z" fill="#1D809A"/>
<path fill-rule="evenodd" clip-rule="evenodd" d="M44.7731 63.45C59.8101 63.45 72 51.1602 72 36C72 20.8398 59.8101 8.54999 44.7731 8.54999C40.7648 8.54999 36.9588 9.42325 33.532 10.9914C33.5145 10.9905 33.4968 10.99 33.479 10.99H15.5294C14.9725 10.99 14.521 11.4452 14.521 12.0067C14.521 12.5681 14.9725 13.0233 15.5294 13.0233H29.8703C22.4485 17.9263 17.5462 26.386 17.5462 36C17.5462 45.614 22.4485 54.0736 29.8703 58.9767H15.5294C14.9725 58.9767 14.521 59.4318 14.521 59.9933C14.521 60.5548 14.9725 61.01 15.5294 61.01H33.479C33.4968 61.01 33.5145 61.0095 33.532 61.0086C36.9588 62.5767 40.7648 63.45 44.7731 63.45ZM44.7731 61.4167C58.6963 61.4167 69.9832 50.0372 69.9832 36C69.9832 21.9628 58.6963 10.5833 44.7731 10.5833C30.85 10.5833 19.563 21.9628 19.563 36C19.563 50.0372 30.85 61.4167 44.7731 61.4167Z" fill="#1D809A"/>
<path d="M4.43698 19.9367C4.43698 19.3752 4.88845 18.92 5.44538 18.92H16.7395C17.2964 18.92 17.7479 19.3752 17.7479 19.9367C17.7479 20.4981 17.2964 20.9533 16.7395 20.9533H5.44538C4.88845 20.9533 4.43698 20.4981 4.43698 19.9367Z" fill="#1D809A"/>
<path d="M5.44538 53.08C4.88845 53.08 4.43698 52.6248 4.43698 52.0633C4.43698 51.5018 4.88845 51.0467 5.44538 51.0467H16.7395C17.2964 51.0467 17.7479 51.5018 17.7479 52.0633C17.7479 52.6248 17.2964 53.08 16.7395 53.08H5.44538Z" fill="#1D809A"/>
<path d="M10.8908 26.85C10.8908 26.2885 11.3422 25.8333 11.8992 25.8333H16.3361C16.8931 25.8333 17.3445 26.2885 17.3445 26.85C17.3445 27.4115 16.8931 27.8667 16.3361 27.8667H11.8992C11.3422 27.8667 10.8908 27.4115 10.8908 26.85Z" fill="#1D809A"/>
<path d="M11.8992 46.1667C11.3422 46.1667 10.8908 45.7115 10.8908 45.15C10.8908 44.5885 11.3422 44.1333 11.8992 44.1333H16.3361C16.8931 44.1333 17.3445 44.5885 17.3445 45.15C17.3445 45.7115 16.8931 46.1667 16.3361 46.1667H11.8992Z" fill="#1D809A"/>
<path d="M0 32.1367C0 31.5752 0.451478 31.12 1.0084 31.12L11.8992 31.12C12.4561 31.12 12.9076 31.5752 12.9076 32.1367C12.9076 32.6981 12.4561 33.1533 11.8992 33.1533L1.0084 33.1533C0.451477 33.1533 0 32.6981 0 32.1367Z" fill="#1D809A"/>
<path d="M1.0084 38.8467C0.451478 38.8467 0 39.3018 0 39.8633C0 40.4248 0.451477 40.88 1.0084 40.88H11.8992C12.4561 40.88 12.9076 40.4248 12.9076 39.8633C12.9076 39.3018 12.4561 38.8467 11.8992 38.8467H1.0084Z" fill="#1D809A"/>
</svg>
