<svg width="24" height="25" viewBox="0 0 24 25" fill="none" xmlns="http://www.w3.org/2000/svg">
<path d="M22.2505 8.52611C22.2649 8.94008 22.6122 9.26397 23.0261 9.24955C23.4401 9.23512 23.764 8.88785 23.7495 8.47389L22.2505 8.52611ZM16.7139 2.50354V3.25354C16.7224 3.25354 16.7309 3.25339 16.7395 3.2531L16.7139 2.50354ZM7.28613 2.50354L7.26053 3.2531C7.26906 3.25339 7.2776 3.25354 7.28613 3.25354V2.50354ZM0.250455 8.47389C0.236033 8.88785 0.559925 9.23512 0.973887 9.24955C1.38785 9.26397 1.73512 8.94008 1.74955 8.52611L0.250455 8.47389ZM23.75 8.5C23.75 8.08579 23.4142 7.75 23 7.75C22.5858 7.75 22.25 8.08579 22.25 8.5H23.75ZM23 16.898L23.7495 16.926C23.7498 16.9167 23.75 16.9073 23.75 16.898H23ZM16.7139 22.4967L16.7378 21.7471C16.7298 21.7468 16.7218 21.7467 16.7139 21.7467V22.4967ZM7.28613 22.4967V21.7467C7.27816 21.7467 7.27019 21.7468 7.26222 21.7471L7.28613 22.4967ZM1 16.898H0.25C0.25 16.9073 0.250174 16.9167 0.250522 16.926L1 16.898ZM1.75 8.5C1.75 8.08579 1.41421 7.75 1 7.75C0.585786 7.75 0.25 8.08579 0.25 8.5H1.75ZM23.3561 9.16009C23.7206 8.96344 23.8567 8.50849 23.6601 8.14394C23.4634 7.77938 23.0085 7.64326 22.6439 7.83991L23.3561 9.16009ZM15.2795 12.6646L14.9234 12.0045L14.9173 12.0078L15.2795 12.6646ZM8.72053 12.6646L9.08272 12.0078L9.0766 12.0045L8.72053 12.6646ZM1.35606 7.83991C0.991505 7.64326 0.536558 7.77938 0.33991 8.14394C0.143262 8.50849 0.279379 8.96344 0.643937 9.16009L1.35606 7.83991ZM23.7495 8.47389C23.6162 4.64715 20.4719 1.62472 16.6883 1.75398L16.7395 3.2531C19.6649 3.15316 22.1449 5.49591 22.2505 8.52611L23.7495 8.47389ZM16.7139 1.75354H7.28613V3.25354H16.7139V1.75354ZM7.31174 1.75398C3.52813 1.62472 0.383772 4.64715 0.250455 8.47389L1.74955 8.52611C1.85511 5.49591 4.33512 3.15316 7.26053 3.2531L7.31174 1.75398ZM22.25 8.5V16.898H23.75V8.5H22.25ZM22.2505 16.8701C22.1477 19.6264 19.7129 21.842 16.7378 21.7471L16.69 23.2463C20.4238 23.3654 23.6134 20.5717 23.7495 16.926L22.2505 16.8701ZM16.7139 21.7467H7.28613V23.2467H16.7139V21.7467ZM7.26222 21.7471C4.28707 21.842 1.85233 19.6264 1.74948 16.8701L0.250522 16.926C0.386555 20.5717 3.57618 23.3654 7.31004 23.2463L7.26222 21.7471ZM1.75 16.898V8.5H0.25V16.898H1.75ZM22.6439 7.83991L14.9234 12.0045L15.6355 13.3247L23.3561 9.16009L22.6439 7.83991ZM14.9173 12.0078C13.1228 12.9974 10.8772 12.9974 9.08271 12.0078L8.35836 13.3213C10.6037 14.5596 13.3963 14.5596 15.6416 13.3213L14.9173 12.0078ZM9.0766 12.0045L1.35606 7.83991L0.643937 9.16009L8.36447 13.3247L9.0766 12.0045Z" fill="white"/>
</svg>
