<svg width="158" height="20" viewBox="0 0 158 20" fill="none" xmlns="http://www.w3.org/2000/svg">
<path d="M5.93889 8.15863C5.93889 8.15863 6.08818 8.05978 6.28224 7.93622C6.30713 7.9214 6.32205 7.91151 6.32703 7.90657C6.68531 7.66933 6.68033 7.67922 6.71019 7.65451C6.84952 7.54577 7.09833 7.34808 7.23766 7.01694C7.30235 6.86372 7.32723 6.72533 7.3322 6.63637C7.35211 6.25086 7.24761 6.03834 7.14311 5.90984C7.05852 5.80605 7.00378 5.79122 6.93909 5.67754C6.77488 5.38594 6.91421 5.04492 6.8744 5.03503C6.82962 5.02515 6.77488 5.49962 6.42158 5.73685C6.3121 5.81099 6.26234 5.80111 6.18272 5.89007C6.05334 6.02846 6.11306 6.12236 5.96875 6.39419C5.89411 6.53258 5.84932 6.57706 5.84932 6.67591C5.84932 6.77476 5.89908 6.80936 5.90406 6.9082C5.90406 6.98234 5.88913 7.08119 5.77468 7.20969C5.5408 7.42221 5.45621 7.61991 5.42138 7.76324C5.40147 7.84726 5.41142 7.86209 5.38654 7.95599C5.33678 8.12898 5.30693 8.29208 5.19247 8.44529C5.14271 8.51448 5.01333 8.68253 4.84912 8.68253C4.77448 8.68253 4.77448 8.64793 4.70482 8.65287C4.55056 8.66276 4.40625 8.84562 4.34654 8.95436C4.32663 8.9939 4.30673 9.03344 4.25697 9.05815C4.20223 9.08286 4.17237 9.05815 4.10768 9.0878C4.0828 9.09769 4.08778 9.10757 4.02309 9.157C4.02309 9.157 3.98328 9.19159 3.93352 9.22619C3.83897 9.29538 3.72452 9.31021 3.70462 9.31515C3.61505 9.33987 3.5404 9.66606 3.62997 10.9857C3.7295 12.9528 3.82902 14.9149 3.92854 16.882C3.86385 16.9512 3.79916 17.0154 3.73447 17.0846C3.59017 15.0335 3.45083 12.9874 3.30653 10.9363L3.34136 9.71549C3.3115 9.7056 3.27667 9.68583 3.25677 9.64629C3.22691 9.59193 3.25179 9.53756 3.25677 9.49802C3.28165 9.32998 3.03284 9.27067 3.00298 9.07298C2.97313 8.87528 3.17715 8.63804 3.17715 8.63804C3.23686 8.57379 3.32643 8.49471 3.46079 8.45517C3.56031 8.42552 3.59017 8.45518 3.71954 8.43046C3.77926 8.42058 4.04797 8.37115 4.09275 8.21794C4.11266 8.15863 4.07285 8.1438 4.0828 8.0499C4.09773 7.93128 4.1674 7.89174 4.21218 7.79289C4.27189 7.65945 4.22711 7.55072 4.21218 7.44693C4.1873 7.23934 4.30673 7.15532 4.77448 6.41891C4.92874 6.17178 5.00836 6.04328 5.04319 5.95926C5.09793 5.82582 5.13774 5.68249 5.25716 5.48973C5.29697 5.43042 5.33181 5.381 5.35171 5.3464L5.84932 4.50125C5.89411 4.36781 5.9787 4.18988 6.13794 4.0169C6.21755 3.92793 6.24244 3.93288 6.3121 3.8538C6.541 3.60668 6.44646 3.42875 6.60569 3.21623C6.82464 2.92463 7.19785 3.00865 7.25259 2.7813C7.2924 2.62808 7.15306 2.48475 7.2078 2.44027C7.27249 2.39085 7.50139 2.52923 7.50139 2.52923C7.62082 2.51935 7.7502 2.5836 7.85967 2.53418C7.88953 2.51935 7.90446 2.50946 7.91939 2.48969C7.9791 2.40567 7.87958 2.27717 7.82484 2.0943C7.79996 2.01028 7.77508 1.89166 7.78503 1.73845C7.76015 1.70385 7.72532 1.65443 7.69546 1.58523C7.60091 1.37765 7.6258 1.2195 7.60589 0.868585C7.60092 0.794449 7.59096 0.680774 7.57603 0.547329C7.62082 0.52756 7.69049 0.50779 7.7701 0.50779C7.91939 0.50779 7.97412 0.586868 8.1035 0.601696C8.24283 0.616523 8.32743 0.547329 8.40705 0.517675C8.55633 0.463308 8.81509 0.512732 9.29777 0.977318C9.43213 1.16513 9.57146 1.27386 9.666 1.33811C9.8949 1.48639 10.1238 1.53087 10.1188 1.62972C10.1188 1.65937 10.089 1.68408 10.0442 1.71868C9.84514 1.85212 9.59634 1.87189 9.43213 1.87189C9.31768 2.0597 9.32265 2.14373 9.35251 2.18326C9.39232 2.24257 9.48189 2.21292 9.51672 2.27717C9.55653 2.35131 9.4371 2.44027 9.47691 2.549C9.49682 2.60337 9.53662 2.60831 9.52667 2.63302C9.50677 2.70716 9.09873 2.59348 9.03404 2.7121C9.00916 2.75658 9.04896 2.82578 9.08877 2.88014C9.12858 2.9098 9.17834 2.95922 9.19825 3.02842C9.22313 3.10749 9.1883 3.14209 9.21318 3.22611C9.23806 3.30519 9.28284 3.31013 9.32763 3.39415C9.37739 3.48312 9.37241 3.56714 9.37739 3.61162C9.39729 3.83403 9.65107 3.92299 9.84514 4.18494C10.0492 4.46171 10.079 4.77309 10.089 4.91147C10.1089 5.15859 10.0442 5.11905 10.0392 5.52927C10.0392 5.90984 10.0939 5.97903 10.0293 6.19155C9.99443 6.31017 9.94964 6.37937 9.95959 6.50293C9.95959 6.53752 9.96955 6.56718 9.9795 6.59189C10.0243 6.71051 10.074 6.79453 10.089 6.81924C10.2134 7.01199 10.0293 7.28383 10.1487 7.64956C10.1935 7.79289 10.1984 7.7583 10.298 7.93622C10.3428 8.02024 10.3726 8.19817 10.4273 8.55402C10.4821 8.89505 10.492 9.01367 10.5965 9.0878C10.6363 9.11746 10.6811 9.13723 10.716 9.19654C10.7607 9.27067 10.7309 9.32504 10.7408 9.45354C10.7458 9.5425 10.7558 9.65124 10.8254 9.73526C10.8453 9.75997 10.92 9.83905 11.0792 9.85388C11.6515 9.4832 12.2287 9.11251 12.801 8.74183C12.8656 8.8308 12.9353 8.91976 13 9.00873C12.4178 9.39423 11.8356 9.7748 11.2584 10.1603C11.1141 10.3531 11.0892 10.4865 11.0991 10.5804C11.0991 10.6249 11.119 10.7089 11.0742 10.7435C11.0444 10.7633 10.9996 10.7583 10.9697 10.7435C10.925 10.8028 10.8802 10.8325 10.8453 10.8522C10.8006 10.872 10.7856 10.8671 10.7458 10.8918C10.701 10.9264 10.701 10.9461 10.6612 10.9709C10.6264 10.9857 10.6164 10.9758 10.5816 10.9956C10.5518 11.0153 10.5468 11.0302 10.5219 11.0401C10.492 11.0499 10.4821 11.0401 10.4473 11.0401C10.3826 11.0499 10.3726 11.0944 10.3278 11.0895C10.2731 11.0895 10.2582 11.0153 10.2283 11.0203C10.1636 11.0203 10.1387 11.4107 10.1387 11.4305C10.1288 11.6134 10.1387 11.6331 10.1288 11.732C10.1039 11.9297 10.0243 12.0631 9.98945 12.1323C9.89988 12.3152 9.87998 12.5425 9.84017 12.9923C9.76055 13.9857 9.86505 14.6628 9.78045 14.9594C9.77548 14.9841 9.73069 15.1324 9.73567 15.3152C9.74064 15.5525 9.81529 15.5426 9.88993 15.938C9.91979 16.0764 9.93969 16.1604 10.0143 16.2098C10.0939 16.2642 10.1935 16.3185 10.1935 16.3185C10.2333 16.3383 10.2731 16.3581 10.283 16.3927C10.293 16.4223 10.283 16.4569 10.2731 16.4767C10.298 16.4767 10.3179 16.4866 10.3428 16.4866C10.3527 16.5162 10.3676 16.5459 10.3776 16.5755C10.4672 16.625 10.5567 16.6695 10.6413 16.7189C10.7856 16.8177 10.91 16.8474 10.9946 16.8523C11.2086 16.8671 11.3629 16.7683 11.4773 16.8523C11.5271 16.8869 11.547 16.9413 11.5569 16.9808C11.5171 17.0105 11.4773 17.0401 11.4425 17.0698C11.4027 17.0994 11.3579 17.134 11.3031 17.1686C11.2235 17.223 11.1937 17.2428 11.1539 17.2527C11.124 17.2576 11.1041 17.2527 11.0543 17.2527C10.9797 17.2527 11.0145 17.2527 10.8503 17.2527C10.6463 17.2527 10.5418 17.2477 10.5119 17.2378C10.4224 17.2181 10.4025 17.1884 10.1984 17.0846C10.084 17.0253 9.98945 16.9808 9.93471 16.9512C9.88993 16.9561 9.84514 16.9611 9.80036 16.966L9.82026 17.1983L9.77548 17.2527C9.77548 17.2527 9.36744 17.2527 9.35748 17.2527C9.24303 17.2131 9.29777 17.0352 9.15844 16.877C9.13853 16.8523 9.11365 16.8276 9.09375 16.7881C9.05394 16.6942 9.07384 16.5755 9.07384 16.5755C9.07384 16.5755 9.12858 16.447 9.13356 16.4322C9.16342 16.363 9.18332 16.2345 9.16341 15.9775C9.09375 15.8589 9.00916 15.681 8.98925 15.4586C8.98427 15.3597 8.98925 15.3251 8.98925 15.246C8.97432 14.9742 8.82006 14.8605 8.70561 14.6381C8.40705 14.4899 8.64092 13.3086 8.73049 12.8687C8.7504 12.765 8.79021 12.5673 8.79021 12.2954C8.79021 12.0977 8.76533 11.9544 8.74542 11.8457C8.68073 11.475 8.65088 11.2872 8.54638 11.2526C8.45183 11.2229 8.2926 11.3959 7.97412 11.7468C7.72034 12.0236 7.65565 12.1472 7.67058 12.2707C7.68053 12.3547 7.72532 12.4091 7.69546 12.4832C7.6457 12.6068 7.45661 12.6315 7.43173 12.6364C7.24263 12.6612 7.0834 12.5524 7.00378 12.503C6.78981 12.3547 6.7699 12.2114 6.67536 12.2213C6.58579 12.2312 6.57086 12.3696 6.42158 12.6117C6.31708 12.7798 6.27229 12.8045 6.16779 12.9478C5.92396 13.2888 5.83937 13.6398 5.79956 13.8078C5.70501 14.1982 5.75478 14.2378 5.66521 14.5096C5.60549 14.6925 5.55573 14.6431 5.33181 15.0088C5.15764 15.2955 5.06807 15.4437 5.03324 15.6464C4.96855 16.0022 5.14271 16.0615 5.04319 16.3581C4.98845 16.5162 4.88396 16.6101 4.84912 16.8523C4.83419 16.9363 4.83917 17.0105 4.83917 17.055C4.84415 17.0747 4.8541 17.1093 4.84912 17.1439C4.83917 17.1835 4.81429 17.2131 4.78941 17.2428C4.69984 17.3317 4.65505 17.3762 4.6252 17.396C4.56548 17.4256 4.53065 17.4207 4.36644 17.4306C4.30673 17.4306 4.22213 17.4405 4.11763 17.4553C4.02309 17.4652 3.94347 17.4751 3.89371 17.4849C3.78423 17.4998 3.74443 17.5097 3.69964 17.4849C3.65983 17.4652 3.63993 17.4256 3.61007 17.3713C3.58519 17.3268 3.56529 17.2922 3.57524 17.2527C3.58519 17.223 3.60509 17.2131 3.63993 17.1835C3.66978 17.1588 3.70462 17.1192 3.73447 17.0599C3.84395 16.966 3.90366 16.8573 3.97333 16.8078C4.07783 16.7337 4.09275 16.6596 4.10768 16.5953C4.12261 16.5064 4.08778 16.4421 4.12759 16.4026C4.15744 16.3729 4.19725 16.3927 4.23706 16.3729C4.33658 16.3284 4.33161 16.111 4.33161 16.0764C4.33161 15.8441 4.37142 15.3053 4.44108 14.5492C4.53563 14.2773 4.60032 14.0401 4.64013 13.8572C4.68491 13.6645 4.65008 13.5706 4.67496 13.4075C4.70482 13.2246 4.78443 12.9725 5.00338 12.6809C5.17257 12.3844 5.31688 12.1274 5.42138 11.9247C5.53085 11.7221 5.56568 11.643 5.53583 11.5541C5.46616 11.3564 5.09793 11.2526 4.83419 11.3415C4.73467 11.3761 4.66003 11.4305 4.6252 11.4602C4.43611 11.6084 4.4162 11.7518 4.23706 11.821C4.13754 11.8605 4.09275 11.8358 4.0828 11.8308C4.02806 11.7962 4.01811 11.7172 4.01314 11.6776C3.9783 11.2971 3.98328 11.1389 3.94845 10.9906C3.88873 10.7089 3.73945 10.7139 3.75935 10.5458C3.75935 10.5458 3.77428 10.4321 4.20223 10.0516C4.20223 10.0516 5.60549 8.34644 5.92396 8.13392L5.93889 8.15863Z" fill="white"/>
<path d="M1.32217 18.1957C1.41442 18.165 1.50154 18.1496 2.18825 18.0882C2.87496 18.0269 3.21831 17.9962 3.60266 17.9757C4.43799 17.9297 8.57875 17.7404 14.2415 17.5C14.2518 17.7097 14.2979 18.0524 14.4722 18.4309C14.6361 18.789 14.8514 19.0345 15 19.1777C9.99829 19.2852 5.00171 19.3926 0 19.5C0.476597 18.5691 1.00957 18.298 1.3273 18.2008L1.32217 18.1957Z" fill="white"/>
<path d="M12 8.67617C12.0772 8.61917 12.1608 8.55699 12.2379 8.5C12.6302 8.75907 13.0225 9.01295 13.4148 9.27202C13.5113 9.3601 13.6077 9.45337 13.7106 9.54145C13.8071 9.78497 13.9035 10.0337 14 10.2772C13.865 10.3497 13.7363 10.4275 13.6013 10.5C13.2797 10.1736 12.9518 9.82124 12.6302 9.443C12.4051 9.18394 12.1994 8.92487 12 8.67617Z" fill="white"/>
<path d="M29.356 4.868L29.188 5.96H25.492V14.5H24.19V4.868H29.356ZM33.7515 6.954C34.5541 6.954 35.1561 7.28533 35.5575 7.948C35.9681 8.61067 36.1735 9.558 36.1735 10.79C36.1735 11.9847 35.9448 12.932 35.4875 13.632C35.0395 14.332 34.4095 14.682 33.5975 14.682C32.8695 14.682 32.2815 14.388 31.8335 13.8V17.3L30.5735 17.454V7.136H31.6795L31.7495 8.13C32.2535 7.346 32.9208 6.954 33.7515 6.954ZM33.3035 13.674C34.3395 13.674 34.8575 12.7173 34.8575 10.804C34.8575 9.80533 34.7361 9.082 34.4935 8.634C34.2601 8.17667 33.9008 7.948 33.4155 7.948C33.0888 7.948 32.7995 8.046 32.5475 8.242C32.2955 8.438 32.0575 8.704 31.8335 9.04V12.764C32.2161 13.3707 32.7061 13.674 33.3035 13.674ZM40.7419 14.528C40.4806 15.396 40.1119 16.068 39.6359 16.544C39.1599 17.02 38.4833 17.3233 37.6059 17.454L37.4659 16.516C37.9046 16.4227 38.2546 16.2967 38.5159 16.138C38.7773 15.9793 38.9873 15.774 39.1459 15.522C39.3046 15.27 39.4586 14.9293 39.6079 14.5H39.1459L36.9619 7.136H38.2639L39.9719 13.618L41.6799 7.136H42.9679L40.7419 14.528ZM48.11 14.5V8.13H45.478V14.5H44.218V7.136H49.37V14.5H48.11ZM55.5338 14.5V8.13H52.9018V14.5H51.6418V7.136H56.7938V14.5H55.5338ZM63.6576 12.82C63.6576 13.1187 63.6996 13.3427 63.7836 13.492C63.8676 13.632 63.9983 13.7393 64.1756 13.814L63.9096 14.668C63.5456 14.612 63.261 14.5 63.0556 14.332C62.8503 14.164 62.7056 13.9073 62.6216 13.562C62.1456 14.3087 61.4783 14.682 60.6196 14.682C59.9663 14.682 59.4483 14.4813 59.0656 14.08C58.683 13.6693 58.4916 13.1233 58.4916 12.442C58.4916 11.658 58.7483 11.0607 59.2616 10.65C59.775 10.2393 60.5076 10.034 61.4596 10.034H62.4116V9.404C62.4116 8.89067 62.3043 8.522 62.0896 8.298C61.8843 8.06467 61.5436 7.948 61.0676 7.948C60.5543 7.948 59.957 8.07867 59.2756 8.34L58.9676 7.458C59.789 7.122 60.5543 6.954 61.2636 6.954C62.8596 6.954 63.6576 7.752 63.6576 9.348V12.82ZM60.9136 13.73C61.567 13.73 62.0663 13.3473 62.4116 12.582V10.846H61.5996C60.3863 10.846 59.7796 11.3547 59.7796 12.372C59.7796 12.8107 59.8776 13.1467 60.0736 13.38C60.2696 13.6133 60.5496 13.73 60.9136 13.73ZM74.3058 7.136L72.3458 10.538L74.5438 14.5H73.1998L71.3098 11.07H70.4838V14.5H69.2238V7.136H70.4838V10.16H71.3378L73.0598 7.136H74.3058ZM78.2253 6.954C79.168 6.954 79.9006 7.28533 80.4233 7.948C80.946 8.61067 81.2073 9.56267 81.2073 10.804C81.2073 11.9987 80.9413 12.946 80.4093 13.646C79.8773 14.3367 79.1446 14.682 78.2113 14.682C77.2686 14.682 76.5313 14.3413 75.9993 13.66C75.4766 12.9787 75.2153 12.0313 75.2153 10.818C75.2153 9.59533 75.4813 8.648 76.0133 7.976C76.5453 7.29467 77.2826 6.954 78.2253 6.954ZM78.2253 7.962C77.6746 7.962 77.2546 8.19533 76.9653 8.662C76.676 9.11933 76.5313 9.838 76.5313 10.818C76.5313 12.7313 77.0913 13.688 78.2113 13.688C79.3313 13.688 79.8913 12.7267 79.8913 10.804C79.8913 9.824 79.7513 9.10533 79.4713 8.648C79.1913 8.19067 78.776 7.962 78.2253 7.962ZM89.6824 14.5H88.4784L88.2264 10.818C88.1798 10.1367 88.1564 9.56267 88.1564 9.096L88.1704 8.326L86.6584 13.66H85.5524L84.0824 8.34L84.0964 9.166C84.0964 9.754 84.0778 10.3047 84.0404 10.818L83.8164 14.5H82.6264L83.2004 7.136H84.7404L86.1124 12.456L87.5404 7.136H89.1084L89.6824 14.5ZM95.442 14.5V8.13H92.81V14.5H91.55V7.136H96.702V14.5H95.442ZM103.566 12.82C103.566 13.1187 103.608 13.3427 103.692 13.492C103.776 13.632 103.907 13.7393 104.084 13.814L103.818 14.668C103.454 14.612 103.169 14.5 102.964 14.332C102.759 14.164 102.614 13.9073 102.53 13.562C102.054 14.3087 101.387 14.682 100.528 14.682C99.8745 14.682 99.3565 14.4813 98.9738 14.08C98.5912 13.6693 98.3998 13.1233 98.3998 12.442C98.3998 11.658 98.6565 11.0607 99.1698 10.65C99.6832 10.2393 100.416 10.034 101.368 10.034H102.32V9.404C102.32 8.89067 102.213 8.522 101.998 8.298C101.793 8.06467 101.452 7.948 100.976 7.948C100.463 7.948 99.8652 8.07867 99.1838 8.34L98.8758 7.458C99.6972 7.122 100.463 6.954 101.172 6.954C102.768 6.954 103.566 7.752 103.566 9.348V12.82ZM100.822 13.73C101.475 13.73 101.975 13.3473 102.32 12.582V10.846H101.508C100.295 10.846 99.6878 11.3547 99.6878 12.372C99.6878 12.8107 99.7858 13.1467 99.9818 13.38C100.178 13.6133 100.458 13.73 100.822 13.73ZM109.771 14.5V11.224H107.097V14.5H105.837V7.136H107.097V10.23H109.771V7.136H111.031V14.5H109.771ZM118.552 14.5H117.348V10.776C117.348 9.95467 117.413 9.194 117.544 8.494L114.66 14.5H113.302V7.136H114.492V10.762C114.492 11.5367 114.436 12.3253 114.324 13.128L117.18 7.136H118.552V14.5ZM126.072 14.5H124.868V10.776C124.868 9.95467 124.933 9.194 125.064 8.494L122.18 14.5H120.822V7.136H122.012V10.762C122.012 11.5367 121.956 12.3253 121.844 13.128L124.7 7.136H126.072V14.5ZM123.44 5.47C122.917 5.47 122.488 5.33 122.152 5.05C121.825 4.76067 121.634 4.36867 121.578 3.874L122.334 3.706C122.418 3.986 122.548 4.19133 122.726 4.322C122.912 4.45267 123.15 4.518 123.44 4.518C123.738 4.518 123.981 4.45267 124.168 4.322C124.354 4.19133 124.49 3.986 124.574 3.706L125.33 3.874C125.274 4.36867 125.078 4.76067 124.742 5.05C124.406 5.33 123.972 5.47 123.44 5.47ZM136.914 4.868L136.76 5.932H134.394V14.5H133.092V5.932H130.656V4.868H136.914ZM141.294 6.954C142.097 6.954 142.699 7.28533 143.1 7.948C143.511 8.61067 143.716 9.558 143.716 10.79C143.716 11.9847 143.488 12.932 143.03 13.632C142.582 14.332 141.952 14.682 141.14 14.682C140.412 14.682 139.824 14.388 139.376 13.8V17.3L138.116 17.454V7.136H139.222L139.292 8.13C139.796 7.346 140.464 6.954 141.294 6.954ZM140.846 13.674C141.882 13.674 142.4 12.7173 142.4 10.804C142.4 9.80533 142.279 9.082 142.036 8.634C141.803 8.17667 141.444 7.948 140.958 7.948C140.632 7.948 140.342 8.046 140.09 8.242C139.838 8.438 139.6 8.704 139.376 9.04V12.764C139.759 13.3707 140.249 13.674 140.846 13.674ZM148.285 14.528C148.024 15.396 147.655 16.068 147.179 16.544C146.703 17.02 146.026 17.3233 145.149 17.454L145.009 16.516C145.448 16.4227 145.798 16.2967 146.059 16.138C146.32 15.9793 146.53 15.774 146.689 15.522C146.848 15.27 147.002 14.9293 147.151 14.5H146.689L144.505 7.136H145.807L147.515 13.618L149.223 7.136H150.511L148.285 14.528ZM157.001 13.506V16.614H156.077L155.881 14.5H151.611L151.415 16.614H150.491V13.506H150.939C151.135 13.3473 151.289 13.1747 151.401 12.988C151.522 12.792 151.625 12.47 151.709 12.022C151.802 11.574 151.877 10.9347 151.933 10.104L152.129 7.136H156.343V13.506H157.001ZM155.111 8.088H153.235L153.123 9.978C153.076 10.762 153.006 11.378 152.913 11.826C152.819 12.274 152.698 12.6193 152.549 12.862C152.409 13.1047 152.217 13.3193 151.975 13.506H155.111V8.088Z" fill="white"/>
</svg>
