<svg width="158" height="19" viewBox="0 0 158 19" fill="none" xmlns="http://www.w3.org/2000/svg">
<path d="M5.93889 7.65863C5.93889 7.65863 6.08818 7.55978 6.28224 7.43622C6.30713 7.4214 6.32205 7.41151 6.32703 7.40657C6.68531 7.16933 6.68033 7.17922 6.71019 7.15451C6.84952 7.04577 7.09833 6.84808 7.23766 6.51694C7.30235 6.36372 7.32723 6.22533 7.3322 6.13637C7.35211 5.75086 7.24761 5.53834 7.14311 5.40984C7.05852 5.30605 7.00378 5.29122 6.93909 5.17754C6.77488 4.88594 6.91421 4.54492 6.8744 4.53503C6.82962 4.52515 6.77488 4.99962 6.42158 5.23685C6.3121 5.31099 6.26234 5.30111 6.18272 5.39007C6.05334 5.52846 6.11306 5.62236 5.96875 5.89419C5.89411 6.03258 5.84932 6.07706 5.84932 6.17591C5.84932 6.27476 5.89908 6.30936 5.90406 6.4082C5.90406 6.48234 5.88913 6.58119 5.77468 6.70969C5.5408 6.92221 5.45621 7.11991 5.42138 7.26324C5.40147 7.34726 5.41142 7.36209 5.38654 7.45599C5.33678 7.62898 5.30693 7.79208 5.19247 7.94529C5.14271 8.01448 5.01333 8.18253 4.84912 8.18253C4.77448 8.18253 4.77448 8.14793 4.70482 8.15287C4.55056 8.16276 4.40625 8.34562 4.34654 8.45436C4.32663 8.4939 4.30673 8.53344 4.25697 8.55815C4.20223 8.58286 4.17237 8.55815 4.10768 8.5878C4.0828 8.59769 4.08778 8.60757 4.02309 8.657C4.02309 8.657 3.98328 8.69159 3.93352 8.72619C3.83897 8.79538 3.72452 8.81021 3.70462 8.81515C3.61505 8.83987 3.5404 9.16606 3.62997 10.4857C3.7295 12.4528 3.82902 14.4149 3.92854 16.382C3.86385 16.4512 3.79916 16.5154 3.73447 16.5846C3.59017 14.5335 3.45083 12.4874 3.30653 10.4363L3.34136 9.21549C3.3115 9.2056 3.27667 9.18583 3.25677 9.14629C3.22691 9.09193 3.25179 9.03756 3.25677 8.99802C3.28165 8.82998 3.03284 8.77067 3.00298 8.57298C2.97313 8.37528 3.17715 8.13804 3.17715 8.13804C3.23686 8.07379 3.32643 7.99471 3.46079 7.95517C3.56031 7.92552 3.59017 7.95518 3.71954 7.93046C3.77926 7.92058 4.04797 7.87115 4.09275 7.71794C4.11266 7.65863 4.07285 7.6438 4.0828 7.5499C4.09773 7.43128 4.1674 7.39174 4.21218 7.29289C4.27189 7.15945 4.22711 7.05072 4.21218 6.94693C4.1873 6.73934 4.30673 6.65532 4.77448 5.91891C4.92874 5.67178 5.00836 5.54328 5.04319 5.45926C5.09793 5.32582 5.13774 5.18249 5.25716 4.98973C5.29697 4.93042 5.33181 4.881 5.35171 4.8464L5.84932 4.00125C5.89411 3.86781 5.9787 3.68988 6.13794 3.5169C6.21755 3.42793 6.24244 3.43288 6.3121 3.3538C6.541 3.10668 6.44646 2.92875 6.60569 2.71623C6.82464 2.42463 7.19785 2.50865 7.25259 2.2813C7.2924 2.12808 7.15306 1.98475 7.2078 1.94027C7.27249 1.89085 7.50139 2.02923 7.50139 2.02923C7.62082 2.01935 7.7502 2.0836 7.85967 2.03418C7.88953 2.01935 7.90446 2.00946 7.91939 1.98969C7.9791 1.90567 7.87958 1.77717 7.82484 1.5943C7.79996 1.51028 7.77508 1.39166 7.78503 1.23845C7.76015 1.20385 7.72532 1.15443 7.69546 1.08523C7.60091 0.877653 7.6258 0.719496 7.60589 0.368585C7.60092 0.294449 7.59096 0.180774 7.57603 0.0473292C7.62082 0.0275596 7.69049 0.00778993 7.7701 0.00778993C7.91939 0.00778993 7.97412 0.0868684 8.1035 0.101696C8.24283 0.116523 8.32743 0.0473292 8.40705 0.0176747C8.55633 -0.0366917 8.81509 0.0127323 9.29777 0.477318C9.43213 0.66513 9.57146 0.773863 9.666 0.838114C9.8949 0.986386 10.1238 1.03087 10.1188 1.12972C10.1188 1.15937 10.089 1.18408 10.0442 1.21868C9.84514 1.35212 9.59634 1.37189 9.43213 1.37189C9.31768 1.5597 9.32265 1.64373 9.35251 1.68326C9.39232 1.74257 9.48189 1.71292 9.51672 1.77717C9.55653 1.85131 9.4371 1.94027 9.47691 2.049C9.49682 2.10337 9.53662 2.10831 9.52667 2.13302C9.50677 2.20716 9.09873 2.09348 9.03404 2.2121C9.00916 2.25658 9.04896 2.32578 9.08877 2.38014C9.12858 2.4098 9.17834 2.45922 9.19825 2.52842C9.22313 2.60749 9.1883 2.64209 9.21318 2.72611C9.23806 2.80519 9.28284 2.81013 9.32763 2.89415C9.37739 2.98312 9.37241 3.06714 9.37739 3.11162C9.39729 3.33403 9.65107 3.42299 9.84514 3.68494C10.0492 3.96171 10.079 4.27309 10.089 4.41147C10.1089 4.65859 10.0442 4.61905 10.0392 5.02927C10.0392 5.40984 10.0939 5.47903 10.0293 5.69155C9.99443 5.81017 9.94964 5.87937 9.95959 6.00293C9.95959 6.03752 9.96955 6.06718 9.9795 6.09189C10.0243 6.21051 10.074 6.29453 10.089 6.31924C10.2134 6.51199 10.0293 6.78383 10.1487 7.14956C10.1935 7.29289 10.1984 7.2583 10.298 7.43622C10.3428 7.52024 10.3726 7.69817 10.4273 8.05402C10.4821 8.39505 10.492 8.51367 10.5965 8.5878C10.6363 8.61746 10.6811 8.63723 10.716 8.69654C10.7607 8.77067 10.7309 8.82504 10.7408 8.95354C10.7458 9.0425 10.7558 9.15124 10.8254 9.23526C10.8453 9.25997 10.92 9.33905 11.0792 9.35388C11.6515 8.9832 12.2287 8.61251 12.801 8.24183C12.8656 8.3308 12.9353 8.41976 13 8.50873C12.4178 8.89423 11.8356 9.2748 11.2584 9.66031C11.1141 9.85306 11.0892 9.9865 11.0991 10.0804C11.0991 10.1249 11.119 10.2089 11.0742 10.2435C11.0444 10.2633 10.9996 10.2583 10.9697 10.2435C10.925 10.3028 10.8802 10.3325 10.8453 10.3522C10.8006 10.372 10.7856 10.3671 10.7458 10.3918C10.701 10.4264 10.701 10.4461 10.6612 10.4709C10.6264 10.4857 10.6164 10.4758 10.5816 10.4956C10.5518 10.5153 10.5468 10.5302 10.5219 10.5401C10.492 10.5499 10.4821 10.5401 10.4473 10.5401C10.3826 10.5499 10.3726 10.5944 10.3278 10.5895C10.2731 10.5895 10.2582 10.5153 10.2283 10.5203C10.1636 10.5203 10.1387 10.9107 10.1387 10.9305C10.1288 11.1134 10.1387 11.1331 10.1288 11.232C10.1039 11.4297 10.0243 11.5631 9.98945 11.6323C9.89988 11.8152 9.87998 12.0425 9.84017 12.4923C9.76055 13.4857 9.86505 14.1628 9.78045 14.4594C9.77548 14.4841 9.73069 14.6324 9.73567 14.8152C9.74064 15.0525 9.81529 15.0426 9.88993 15.438C9.91979 15.5764 9.93969 15.6604 10.0143 15.7098C10.0939 15.7642 10.1935 15.8185 10.1935 15.8185C10.2333 15.8383 10.2731 15.8581 10.283 15.8927C10.293 15.9223 10.283 15.9569 10.2731 15.9767C10.298 15.9767 10.3179 15.9866 10.3428 15.9866C10.3527 16.0162 10.3676 16.0459 10.3776 16.0755C10.4672 16.125 10.5567 16.1695 10.6413 16.2189C10.7856 16.3177 10.91 16.3474 10.9946 16.3523C11.2086 16.3671 11.3629 16.2683 11.4773 16.3523C11.5271 16.3869 11.547 16.4413 11.5569 16.4808C11.5171 16.5105 11.4773 16.5401 11.4425 16.5698C11.4027 16.5994 11.3579 16.634 11.3031 16.6686C11.2235 16.723 11.1937 16.7428 11.1539 16.7527C11.124 16.7576 11.1041 16.7527 11.0543 16.7527C10.9797 16.7527 11.0145 16.7527 10.8503 16.7527C10.6463 16.7527 10.5418 16.7477 10.5119 16.7378C10.4224 16.7181 10.4025 16.6884 10.1984 16.5846C10.084 16.5253 9.98945 16.4808 9.93471 16.4512C9.88993 16.4561 9.84514 16.4611 9.80036 16.466L9.82026 16.6983L9.77548 16.7527C9.77548 16.7527 9.36744 16.7527 9.35748 16.7527C9.24303 16.7131 9.29777 16.5352 9.15844 16.377C9.13853 16.3523 9.11365 16.3276 9.09375 16.2881C9.05394 16.1942 9.07384 16.0755 9.07384 16.0755C9.07384 16.0755 9.12858 15.947 9.13356 15.9322C9.16342 15.863 9.18332 15.7345 9.16341 15.4775C9.09375 15.3589 9.00916 15.181 8.98925 14.9586C8.98427 14.8597 8.98925 14.8251 8.98925 14.746C8.97432 14.4742 8.82006 14.3605 8.70561 14.1381C8.40705 13.9899 8.64092 12.8086 8.73049 12.3687C8.7504 12.265 8.79021 12.0673 8.79021 11.7954C8.79021 11.5977 8.76533 11.4544 8.74542 11.3457C8.68073 10.975 8.65088 10.7872 8.54638 10.7526C8.45183 10.7229 8.2926 10.8959 7.97412 11.2468C7.72034 11.5236 7.65565 11.6472 7.67058 11.7707C7.68053 11.8547 7.72532 11.9091 7.69546 11.9832C7.6457 12.1068 7.45661 12.1315 7.43173 12.1364C7.24263 12.1612 7.0834 12.0524 7.00378 12.003C6.78981 11.8547 6.7699 11.7114 6.67536 11.7213C6.58579 11.7312 6.57086 11.8696 6.42158 12.1117C6.31708 12.2798 6.27229 12.3045 6.16779 12.4478C5.92396 12.7888 5.83937 13.1398 5.79956 13.3078C5.70501 13.6982 5.75478 13.7378 5.66521 14.0096C5.60549 14.1925 5.55573 14.1431 5.33181 14.5088C5.15764 14.7955 5.06807 14.9437 5.03324 15.1464C4.96855 15.5022 5.14271 15.5615 5.04319 15.8581C4.98845 16.0162 4.88396 16.1101 4.84912 16.3523C4.83419 16.4363 4.83917 16.5105 4.83917 16.555C4.84415 16.5747 4.8541 16.6093 4.84912 16.6439C4.83917 16.6835 4.81429 16.7131 4.78941 16.7428C4.69984 16.8317 4.65505 16.8762 4.6252 16.896C4.56548 16.9256 4.53065 16.9207 4.36644 16.9306C4.30673 16.9306 4.22213 16.9405 4.11763 16.9553C4.02309 16.9652 3.94347 16.9751 3.89371 16.9849C3.78423 16.9998 3.74443 17.0097 3.69964 16.9849C3.65983 16.9652 3.63993 16.9256 3.61007 16.8713C3.58519 16.8268 3.56529 16.7922 3.57524 16.7527C3.58519 16.723 3.60509 16.7131 3.63993 16.6835C3.66978 16.6588 3.70462 16.6192 3.73447 16.5599C3.84395 16.466 3.90366 16.3573 3.97333 16.3078C4.07783 16.2337 4.09275 16.1596 4.10768 16.0953C4.12261 16.0064 4.08778 15.9421 4.12759 15.9026C4.15744 15.8729 4.19725 15.8927 4.23706 15.8729C4.33658 15.8284 4.33161 15.611 4.33161 15.5764C4.33161 15.3441 4.37142 14.8053 4.44108 14.0492C4.53563 13.7773 4.60032 13.5401 4.64013 13.3572C4.68491 13.1645 4.65008 13.0706 4.67496 12.9075C4.70482 12.7246 4.78443 12.4725 5.00338 12.1809C5.17257 11.8844 5.31688 11.6274 5.42138 11.4247C5.53085 11.2221 5.56568 11.143 5.53583 11.0541C5.46616 10.8564 5.09793 10.7526 4.83419 10.8415C4.73467 10.8761 4.66003 10.9305 4.6252 10.9602C4.43611 11.1084 4.4162 11.2518 4.23706 11.321C4.13754 11.3605 4.09275 11.3358 4.0828 11.3308C4.02806 11.2962 4.01811 11.2172 4.01314 11.1776C3.9783 10.7971 3.98328 10.6389 3.94845 10.4906C3.88873 10.2089 3.73945 10.2139 3.75935 10.0458C3.75935 10.0458 3.77428 9.93214 4.20223 9.55157C4.20223 9.55157 5.60549 7.84644 5.92396 7.63392L5.93889 7.65863Z" fill="#395A64"/>
<path d="M1.32217 17.6957C1.41442 17.665 1.50154 17.6496 2.18825 17.5882C2.87496 17.5269 3.21831 17.4962 3.60266 17.4757C4.43799 17.4297 8.57875 17.2404 14.2415 17C14.2518 17.2097 14.2979 17.5524 14.4722 17.9309C14.6361 18.289 14.8514 18.5345 15 18.6777C9.99829 18.7852 5.00171 18.8926 0 19C0.476597 18.0691 1.00957 17.798 1.3273 17.7008L1.32217 17.6957Z" fill="#395A64"/>
<path d="M12 8.17617C12.0772 8.11917 12.1608 8.05699 12.2379 8C12.6302 8.25907 13.0225 8.51295 13.4148 8.77202C13.5113 8.8601 13.6077 8.95337 13.7106 9.04145C13.8071 9.28497 13.9035 9.53368 14 9.7772C13.865 9.84974 13.7363 9.92746 13.6013 10C13.2797 9.67358 12.9518 9.32124 12.6302 8.943C12.4051 8.68394 12.1994 8.42487 12 8.17617Z" fill="#395A64"/>
<path d="M29.356 4.368L29.188 5.46H25.492V14H24.19V4.368H29.356ZM33.7515 6.454C34.5541 6.454 35.1561 6.78533 35.5575 7.448C35.9681 8.11067 36.1735 9.058 36.1735 10.29C36.1735 11.4847 35.9448 12.432 35.4875 13.132C35.0395 13.832 34.4095 14.182 33.5975 14.182C32.8695 14.182 32.2815 13.888 31.8335 13.3V16.8L30.5735 16.954V6.636H31.6795L31.7495 7.63C32.2535 6.846 32.9208 6.454 33.7515 6.454ZM33.3035 13.174C34.3395 13.174 34.8575 12.2173 34.8575 10.304C34.8575 9.30533 34.7361 8.582 34.4935 8.134C34.2601 7.67667 33.9008 7.448 33.4155 7.448C33.0888 7.448 32.7995 7.546 32.5475 7.742C32.2955 7.938 32.0575 8.204 31.8335 8.54V12.264C32.2161 12.8707 32.7061 13.174 33.3035 13.174ZM40.7419 14.028C40.4806 14.896 40.1119 15.568 39.6359 16.044C39.1599 16.52 38.4833 16.8233 37.6059 16.954L37.4659 16.016C37.9046 15.9227 38.2546 15.7967 38.5159 15.638C38.7773 15.4793 38.9873 15.274 39.1459 15.022C39.3046 14.77 39.4586 14.4293 39.6079 14H39.1459L36.9619 6.636H38.2639L39.9719 13.118L41.6799 6.636H42.9679L40.7419 14.028ZM48.11 14V7.63H45.478V14H44.218V6.636H49.37V14H48.11ZM55.5338 14V7.63H52.9018V14H51.6418V6.636H56.7938V14H55.5338ZM63.6576 12.32C63.6576 12.6187 63.6996 12.8427 63.7836 12.992C63.8676 13.132 63.9983 13.2393 64.1756 13.314L63.9096 14.168C63.5456 14.112 63.261 14 63.0556 13.832C62.8503 13.664 62.7056 13.4073 62.6216 13.062C62.1456 13.8087 61.4783 14.182 60.6196 14.182C59.9663 14.182 59.4483 13.9813 59.0656 13.58C58.683 13.1693 58.4916 12.6233 58.4916 11.942C58.4916 11.158 58.7483 10.5607 59.2616 10.15C59.775 9.73933 60.5076 9.534 61.4596 9.534H62.4116V8.904C62.4116 8.39067 62.3043 8.022 62.0896 7.798C61.8843 7.56467 61.5436 7.448 61.0676 7.448C60.5543 7.448 59.957 7.57867 59.2756 7.84L58.9676 6.958C59.789 6.622 60.5543 6.454 61.2636 6.454C62.8596 6.454 63.6576 7.252 63.6576 8.848V12.32ZM60.9136 13.23C61.567 13.23 62.0663 12.8473 62.4116 12.082V10.346H61.5996C60.3863 10.346 59.7796 10.8547 59.7796 11.872C59.7796 12.3107 59.8776 12.6467 60.0736 12.88C60.2696 13.1133 60.5496 13.23 60.9136 13.23ZM74.3058 6.636L72.3458 10.038L74.5438 14H73.1998L71.3098 10.57H70.4838V14H69.2238V6.636H70.4838V9.66H71.3378L73.0598 6.636H74.3058ZM78.2253 6.454C79.168 6.454 79.9006 6.78533 80.4233 7.448C80.946 8.11067 81.2073 9.06267 81.2073 10.304C81.2073 11.4987 80.9413 12.446 80.4093 13.146C79.8773 13.8367 79.1446 14.182 78.2113 14.182C77.2686 14.182 76.5313 13.8413 75.9993 13.16C75.4766 12.4787 75.2153 11.5313 75.2153 10.318C75.2153 9.09533 75.4813 8.148 76.0133 7.476C76.5453 6.79467 77.2826 6.454 78.2253 6.454ZM78.2253 7.462C77.6746 7.462 77.2546 7.69533 76.9653 8.162C76.676 8.61933 76.5313 9.338 76.5313 10.318C76.5313 12.2313 77.0913 13.188 78.2113 13.188C79.3313 13.188 79.8913 12.2267 79.8913 10.304C79.8913 9.324 79.7513 8.60533 79.4713 8.148C79.1913 7.69067 78.776 7.462 78.2253 7.462ZM89.6824 14H88.4784L88.2264 10.318C88.1798 9.63667 88.1564 9.06267 88.1564 8.596L88.1704 7.826L86.6584 13.16H85.5524L84.0824 7.84L84.0964 8.666C84.0964 9.254 84.0778 9.80467 84.0404 10.318L83.8164 14H82.6264L83.2004 6.636H84.7404L86.1124 11.956L87.5404 6.636H89.1084L89.6824 14ZM95.442 14V7.63H92.81V14H91.55V6.636H96.702V14H95.442ZM103.566 12.32C103.566 12.6187 103.608 12.8427 103.692 12.992C103.776 13.132 103.907 13.2393 104.084 13.314L103.818 14.168C103.454 14.112 103.169 14 102.964 13.832C102.759 13.664 102.614 13.4073 102.53 13.062C102.054 13.8087 101.387 14.182 100.528 14.182C99.8745 14.182 99.3565 13.9813 98.9738 13.58C98.5912 13.1693 98.3998 12.6233 98.3998 11.942C98.3998 11.158 98.6565 10.5607 99.1698 10.15C99.6832 9.73933 100.416 9.534 101.368 9.534H102.32V8.904C102.32 8.39067 102.213 8.022 101.998 7.798C101.793 7.56467 101.452 7.448 100.976 7.448C100.463 7.448 99.8652 7.57867 99.1838 7.84L98.8758 6.958C99.6972 6.622 100.463 6.454 101.172 6.454C102.768 6.454 103.566 7.252 103.566 8.848V12.32ZM100.822 13.23C101.475 13.23 101.975 12.8473 102.32 12.082V10.346H101.508C100.295 10.346 99.6878 10.8547 99.6878 11.872C99.6878 12.3107 99.7858 12.6467 99.9818 12.88C100.178 13.1133 100.458 13.23 100.822 13.23ZM109.771 14V10.724H107.097V14H105.837V6.636H107.097V9.73H109.771V6.636H111.031V14H109.771ZM118.552 14H117.348V10.276C117.348 9.45467 117.413 8.694 117.544 7.994L114.66 14H113.302V6.636H114.492V10.262C114.492 11.0367 114.436 11.8253 114.324 12.628L117.18 6.636H118.552V14ZM126.072 14H124.868V10.276C124.868 9.45467 124.933 8.694 125.064 7.994L122.18 14H120.822V6.636H122.012V10.262C122.012 11.0367 121.956 11.8253 121.844 12.628L124.7 6.636H126.072V14ZM123.44 4.97C122.917 4.97 122.488 4.83 122.152 4.55C121.825 4.26067 121.634 3.86867 121.578 3.374L122.334 3.206C122.418 3.486 122.548 3.69133 122.726 3.822C122.912 3.95267 123.15 4.018 123.44 4.018C123.738 4.018 123.981 3.95267 124.168 3.822C124.354 3.69133 124.49 3.486 124.574 3.206L125.33 3.374C125.274 3.86867 125.078 4.26067 124.742 4.55C124.406 4.83 123.972 4.97 123.44 4.97ZM136.914 4.368L136.76 5.432H134.394V14H133.092V5.432H130.656V4.368H136.914ZM141.294 6.454C142.097 6.454 142.699 6.78533 143.1 7.448C143.511 8.11067 143.716 9.058 143.716 10.29C143.716 11.4847 143.488 12.432 143.03 13.132C142.582 13.832 141.952 14.182 141.14 14.182C140.412 14.182 139.824 13.888 139.376 13.3V16.8L138.116 16.954V6.636H139.222L139.292 7.63C139.796 6.846 140.464 6.454 141.294 6.454ZM140.846 13.174C141.882 13.174 142.4 12.2173 142.4 10.304C142.4 9.30533 142.279 8.582 142.036 8.134C141.803 7.67667 141.444 7.448 140.958 7.448C140.632 7.448 140.342 7.546 140.09 7.742C139.838 7.938 139.6 8.204 139.376 8.54V12.264C139.759 12.8707 140.249 13.174 140.846 13.174ZM148.285 14.028C148.024 14.896 147.655 15.568 147.179 16.044C146.703 16.52 146.026 16.8233 145.149 16.954L145.009 16.016C145.448 15.9227 145.798 15.7967 146.059 15.638C146.32 15.4793 146.53 15.274 146.689 15.022C146.848 14.77 147.002 14.4293 147.151 14H146.689L144.505 6.636H145.807L147.515 13.118L149.223 6.636H150.511L148.285 14.028ZM157.001 13.006V16.114H156.077L155.881 14H151.611L151.415 16.114H150.491V13.006H150.939C151.135 12.8473 151.289 12.6747 151.401 12.488C151.522 12.292 151.625 11.97 151.709 11.522C151.802 11.074 151.877 10.4347 151.933 9.604L152.129 6.636H156.343V13.006H157.001ZM155.111 7.588H153.235L153.123 9.478C153.076 10.262 153.006 10.878 152.913 11.326C152.819 11.774 152.698 12.1193 152.549 12.362C152.409 12.6047 152.217 12.8193 151.975 13.006H155.111V7.588Z" fill="#395A64"/>
</svg>
