<svg width="73" height="72" viewBox="0 0 73 72" fill="none" xmlns="http://www.w3.org/2000/svg">
<path fill-rule="evenodd" clip-rule="evenodd" d="M28.6949 11.0154C29.1813 11.0154 29.5756 11.4113 29.5756 11.8998V14.2753H40.1131V11.8998C40.1131 11.4113 40.5074 11.0154 40.9938 11.0154C41.4802 11.0154 41.8745 11.4113 41.8745 11.8998V14.2753H52.296V11.8998C52.296 11.4113 52.6904 11.0154 53.1768 11.0154C53.6632 11.0154 54.0575 11.4113 54.0575 11.8998V14.2753H62.8495C63.7795 14.2753 64.5 15.0351 64.5 15.9419V59.318C64.5 60.2385 63.757 60.9846 62.8404 60.9846H18.9152C17.9986 60.9846 17.2556 60.2385 17.2556 59.318V54.4648H10.3043C9.4184 54.4648 8.86827 53.7955 8.65021 53.2303C8.43111 52.6623 8.39921 51.8469 8.91624 51.2266C11.7942 47.7738 15.6846 39.6463 16.8867 24.7516C17.1055 22.0402 17.2351 19.106 17.2534 15.937C17.2586 15.0329 17.9792 14.2753 18.908 14.2753H27.8141V11.8998C27.8141 11.4113 28.2084 11.0154 28.6949 11.0154ZM27.8141 16.0441H19.0142C18.996 18.8512 18.8915 21.48 18.7152 23.9387H62.7386V16.0441H54.0575V18.5361C54.0575 19.0245 53.6632 19.4205 53.1768 19.4205C52.6904 19.4205 52.296 19.0245 52.296 18.5361V16.0441H41.8745V18.5361C41.8745 19.0245 41.4802 19.4205 40.9938 19.4205C40.5074 19.4205 40.1131 19.0245 40.1131 18.5361V16.0441H29.5756V18.5361C29.5756 19.0245 29.1813 19.4205 28.6949 19.4205C28.2084 19.4205 27.8141 19.0245 27.8141 18.5361V16.0441ZM62.7386 25.7075H18.5736C17.2807 40.3009 13.4068 48.592 10.2707 52.3574C10.2686 52.3625 10.2642 52.376 10.262 52.4014C10.2576 52.4521 10.2658 52.5215 10.2927 52.5913C10.3127 52.6432 10.3359 52.6771 10.352 52.6959H53.0023C54.6998 50.6706 57.1365 47.2862 59.1499 43.4333C61.1872 39.5347 62.7386 35.2553 62.7386 31.4594V25.7075ZM62.7386 39.7948C62.1511 41.3281 61.4547 42.8294 60.7097 44.2552C58.6147 48.2641 56.0817 51.7759 54.3106 53.8818C53.9907 54.262 53.5279 54.4648 53.0523 54.4648H19.017V59.2158H62.7386V39.7948Z" fill="#1D809A"/>
</svg>
