<svg width="178" height="20" viewBox="0 0 178 20" fill="none" xmlns="http://www.w3.org/2000/svg">
<path d="M5.93889 8.15863C5.93889 8.15863 6.08818 8.05978 6.28224 7.93622C6.30713 7.9214 6.32205 7.91151 6.32703 7.90657C6.68531 7.66933 6.68033 7.67922 6.71019 7.65451C6.84952 7.54577 7.09833 7.34808 7.23766 7.01694C7.30235 6.86372 7.32723 6.72533 7.3322 6.63637C7.35211 6.25086 7.24761 6.03834 7.14311 5.90984C7.05852 5.80605 7.00378 5.79122 6.93909 5.67754C6.77488 5.38594 6.91421 5.04492 6.8744 5.03503C6.82962 5.02515 6.77488 5.49962 6.42158 5.73685C6.3121 5.81099 6.26234 5.80111 6.18272 5.89007C6.05334 6.02846 6.11306 6.12236 5.96875 6.39419C5.89411 6.53258 5.84932 6.57706 5.84932 6.67591C5.84932 6.77476 5.89908 6.80936 5.90406 6.9082C5.90406 6.98234 5.88913 7.08119 5.77468 7.20969C5.5408 7.42221 5.45621 7.61991 5.42138 7.76324C5.40147 7.84726 5.41142 7.86209 5.38654 7.95599C5.33678 8.12898 5.30693 8.29208 5.19247 8.44529C5.14271 8.51448 5.01333 8.68253 4.84912 8.68253C4.77448 8.68253 4.77448 8.64793 4.70482 8.65287C4.55056 8.66276 4.40625 8.84562 4.34654 8.95436C4.32663 8.9939 4.30673 9.03344 4.25697 9.05815C4.20223 9.08286 4.17237 9.05815 4.10768 9.0878C4.0828 9.09769 4.08778 9.10757 4.02309 9.157C4.02309 9.157 3.98328 9.19159 3.93352 9.22619C3.83897 9.29538 3.72452 9.31021 3.70462 9.31515C3.61505 9.33987 3.5404 9.66606 3.62997 10.9857C3.7295 12.9528 3.82902 14.9149 3.92854 16.882C3.86385 16.9512 3.79916 17.0154 3.73447 17.0846C3.59017 15.0335 3.45083 12.9874 3.30653 10.9363L3.34136 9.71549C3.3115 9.7056 3.27667 9.68583 3.25677 9.64629C3.22691 9.59193 3.25179 9.53756 3.25677 9.49802C3.28165 9.32998 3.03284 9.27067 3.00298 9.07298C2.97313 8.87528 3.17715 8.63804 3.17715 8.63804C3.23686 8.57379 3.32643 8.49471 3.46079 8.45517C3.56031 8.42552 3.59017 8.45518 3.71954 8.43046C3.77926 8.42058 4.04797 8.37115 4.09275 8.21794C4.11266 8.15863 4.07285 8.1438 4.0828 8.0499C4.09773 7.93128 4.1674 7.89174 4.21218 7.79289C4.27189 7.65945 4.22711 7.55072 4.21218 7.44693C4.1873 7.23934 4.30673 7.15532 4.77448 6.41891C4.92874 6.17178 5.00836 6.04328 5.04319 5.95926C5.09793 5.82582 5.13774 5.68249 5.25716 5.48973C5.29697 5.43042 5.33181 5.381 5.35171 5.3464L5.84932 4.50125C5.89411 4.36781 5.9787 4.18988 6.13794 4.0169C6.21755 3.92793 6.24244 3.93288 6.3121 3.8538C6.541 3.60668 6.44646 3.42875 6.60569 3.21623C6.82464 2.92463 7.19785 3.00865 7.25259 2.7813C7.2924 2.62808 7.15306 2.48475 7.2078 2.44027C7.27249 2.39085 7.50139 2.52923 7.50139 2.52923C7.62082 2.51935 7.7502 2.5836 7.85967 2.53418C7.88953 2.51935 7.90446 2.50946 7.91939 2.48969C7.9791 2.40567 7.87958 2.27717 7.82484 2.0943C7.79996 2.01028 7.77508 1.89166 7.78503 1.73845C7.76015 1.70385 7.72532 1.65443 7.69546 1.58523C7.60091 1.37765 7.6258 1.2195 7.60589 0.868585C7.60092 0.794449 7.59096 0.680774 7.57603 0.547329C7.62082 0.52756 7.69049 0.50779 7.7701 0.50779C7.91939 0.50779 7.97412 0.586868 8.1035 0.601696C8.24283 0.616523 8.32743 0.547329 8.40705 0.517675C8.55633 0.463308 8.81509 0.512732 9.29777 0.977318C9.43213 1.16513 9.57146 1.27386 9.666 1.33811C9.8949 1.48639 10.1238 1.53087 10.1188 1.62972C10.1188 1.65937 10.089 1.68408 10.0442 1.71868C9.84514 1.85212 9.59634 1.87189 9.43213 1.87189C9.31768 2.0597 9.32265 2.14373 9.35251 2.18326C9.39232 2.24257 9.48189 2.21292 9.51672 2.27717C9.55653 2.35131 9.4371 2.44027 9.47691 2.549C9.49682 2.60337 9.53662 2.60831 9.52667 2.63302C9.50677 2.70716 9.09873 2.59348 9.03404 2.7121C9.00916 2.75658 9.04896 2.82578 9.08877 2.88014C9.12858 2.9098 9.17834 2.95922 9.19825 3.02842C9.22313 3.10749 9.1883 3.14209 9.21318 3.22611C9.23806 3.30519 9.28284 3.31013 9.32763 3.39415C9.37739 3.48312 9.37241 3.56714 9.37739 3.61162C9.39729 3.83403 9.65107 3.92299 9.84514 4.18494C10.0492 4.46171 10.079 4.77309 10.089 4.91147C10.1089 5.15859 10.0442 5.11905 10.0392 5.52927C10.0392 5.90984 10.0939 5.97903 10.0293 6.19155C9.99443 6.31017 9.94964 6.37937 9.95959 6.50293C9.95959 6.53752 9.96955 6.56718 9.9795 6.59189C10.0243 6.71051 10.074 6.79453 10.089 6.81924C10.2134 7.01199 10.0293 7.28383 10.1487 7.64956C10.1935 7.79289 10.1984 7.7583 10.298 7.93622C10.3428 8.02024 10.3726 8.19817 10.4273 8.55402C10.4821 8.89505 10.492 9.01367 10.5965 9.0878C10.6363 9.11746 10.6811 9.13723 10.716 9.19654C10.7607 9.27067 10.7309 9.32504 10.7408 9.45354C10.7458 9.5425 10.7558 9.65124 10.8254 9.73526C10.8453 9.75997 10.92 9.83905 11.0792 9.85388C11.6515 9.4832 12.2287 9.11251 12.801 8.74183C12.8656 8.8308 12.9353 8.91976 13 9.00873C12.4178 9.39423 11.8356 9.7748 11.2584 10.1603C11.1141 10.3531 11.0892 10.4865 11.0991 10.5804C11.0991 10.6249 11.119 10.7089 11.0742 10.7435C11.0444 10.7633 10.9996 10.7583 10.9697 10.7435C10.925 10.8028 10.8802 10.8325 10.8453 10.8522C10.8006 10.872 10.7856 10.8671 10.7458 10.8918C10.701 10.9264 10.701 10.9461 10.6612 10.9709C10.6264 10.9857 10.6164 10.9758 10.5816 10.9956C10.5518 11.0153 10.5468 11.0302 10.5219 11.0401C10.492 11.0499 10.4821 11.0401 10.4473 11.0401C10.3826 11.0499 10.3726 11.0944 10.3278 11.0895C10.2731 11.0895 10.2582 11.0153 10.2283 11.0203C10.1636 11.0203 10.1387 11.4107 10.1387 11.4305C10.1288 11.6134 10.1387 11.6331 10.1288 11.732C10.1039 11.9297 10.0243 12.0631 9.98945 12.1323C9.89988 12.3152 9.87998 12.5425 9.84017 12.9923C9.76055 13.9857 9.86505 14.6628 9.78045 14.9594C9.77548 14.9841 9.73069 15.1324 9.73567 15.3152C9.74064 15.5525 9.81529 15.5426 9.88993 15.938C9.91979 16.0764 9.93969 16.1604 10.0143 16.2098C10.0939 16.2642 10.1935 16.3185 10.1935 16.3185C10.2333 16.3383 10.2731 16.3581 10.283 16.3927C10.293 16.4223 10.283 16.4569 10.2731 16.4767C10.298 16.4767 10.3179 16.4866 10.3428 16.4866C10.3527 16.5162 10.3676 16.5459 10.3776 16.5755C10.4672 16.625 10.5567 16.6695 10.6413 16.7189C10.7856 16.8177 10.91 16.8474 10.9946 16.8523C11.2086 16.8671 11.3629 16.7683 11.4773 16.8523C11.5271 16.8869 11.547 16.9413 11.5569 16.9808C11.5171 17.0105 11.4773 17.0401 11.4425 17.0698C11.4027 17.0994 11.3579 17.134 11.3031 17.1686C11.2235 17.223 11.1937 17.2428 11.1539 17.2527C11.124 17.2576 11.1041 17.2527 11.0543 17.2527C10.9797 17.2527 11.0145 17.2527 10.8503 17.2527C10.6463 17.2527 10.5418 17.2477 10.5119 17.2378C10.4224 17.2181 10.4025 17.1884 10.1984 17.0846C10.084 17.0253 9.98945 16.9808 9.93471 16.9512C9.88993 16.9561 9.84514 16.9611 9.80036 16.966L9.82026 17.1983L9.77548 17.2527C9.77548 17.2527 9.36744 17.2527 9.35748 17.2527C9.24303 17.2131 9.29777 17.0352 9.15844 16.877C9.13853 16.8523 9.11365 16.8276 9.09375 16.7881C9.05394 16.6942 9.07384 16.5755 9.07384 16.5755C9.07384 16.5755 9.12858 16.447 9.13356 16.4322C9.16342 16.363 9.18332 16.2345 9.16341 15.9775C9.09375 15.8589 9.00916 15.681 8.98925 15.4586C8.98427 15.3597 8.98925 15.3251 8.98925 15.246C8.97432 14.9742 8.82006 14.8605 8.70561 14.6381C8.40705 14.4899 8.64092 13.3086 8.73049 12.8687C8.7504 12.765 8.79021 12.5673 8.79021 12.2954C8.79021 12.0977 8.76533 11.9544 8.74542 11.8457C8.68073 11.475 8.65088 11.2872 8.54638 11.2526C8.45183 11.2229 8.2926 11.3959 7.97412 11.7468C7.72034 12.0236 7.65565 12.1472 7.67058 12.2707C7.68053 12.3547 7.72532 12.4091 7.69546 12.4832C7.6457 12.6068 7.45661 12.6315 7.43173 12.6364C7.24263 12.6612 7.0834 12.5524 7.00378 12.503C6.78981 12.3547 6.7699 12.2114 6.67536 12.2213C6.58579 12.2312 6.57086 12.3696 6.42158 12.6117C6.31708 12.7798 6.27229 12.8045 6.16779 12.9478C5.92396 13.2888 5.83937 13.6398 5.79956 13.8078C5.70501 14.1982 5.75478 14.2378 5.66521 14.5096C5.60549 14.6925 5.55573 14.6431 5.33181 15.0088C5.15764 15.2955 5.06807 15.4437 5.03324 15.6464C4.96855 16.0022 5.14271 16.0615 5.04319 16.3581C4.98845 16.5162 4.88396 16.6101 4.84912 16.8523C4.83419 16.9363 4.83917 17.0105 4.83917 17.055C4.84415 17.0747 4.8541 17.1093 4.84912 17.1439C4.83917 17.1835 4.81429 17.2131 4.78941 17.2428C4.69984 17.3317 4.65505 17.3762 4.6252 17.396C4.56548 17.4256 4.53065 17.4207 4.36644 17.4306C4.30673 17.4306 4.22213 17.4405 4.11763 17.4553C4.02309 17.4652 3.94347 17.4751 3.89371 17.4849C3.78423 17.4998 3.74443 17.5097 3.69964 17.4849C3.65983 17.4652 3.63993 17.4256 3.61007 17.3713C3.58519 17.3268 3.56529 17.2922 3.57524 17.2527C3.58519 17.223 3.60509 17.2131 3.63993 17.1835C3.66978 17.1588 3.70462 17.1192 3.73447 17.0599C3.84395 16.966 3.90366 16.8573 3.97333 16.8078C4.07783 16.7337 4.09275 16.6596 4.10768 16.5953C4.12261 16.5064 4.08778 16.4421 4.12759 16.4026C4.15744 16.3729 4.19725 16.3927 4.23706 16.3729C4.33658 16.3284 4.33161 16.111 4.33161 16.0764C4.33161 15.8441 4.37142 15.3053 4.44108 14.5492C4.53563 14.2773 4.60032 14.0401 4.64013 13.8572C4.68491 13.6645 4.65008 13.5706 4.67496 13.4075C4.70482 13.2246 4.78443 12.9725 5.00338 12.6809C5.17257 12.3844 5.31688 12.1274 5.42138 11.9247C5.53085 11.7221 5.56568 11.643 5.53583 11.5541C5.46616 11.3564 5.09793 11.2526 4.83419 11.3415C4.73467 11.3761 4.66003 11.4305 4.6252 11.4602C4.43611 11.6084 4.4162 11.7518 4.23706 11.821C4.13754 11.8605 4.09275 11.8358 4.0828 11.8308C4.02806 11.7962 4.01811 11.7172 4.01314 11.6776C3.9783 11.2971 3.98328 11.1389 3.94845 10.9906C3.88873 10.7089 3.73945 10.7139 3.75935 10.5458C3.75935 10.5458 3.77428 10.4321 4.20223 10.0516C4.20223 10.0516 5.60549 8.34644 5.92396 8.13392L5.93889 8.15863Z" fill="#666666"/>
<path d="M1.32217 18.1957C1.41442 18.165 1.50154 18.1496 2.18825 18.0882C2.87496 18.0269 3.21831 17.9962 3.60266 17.9757C4.43799 17.9297 8.57875 17.7404 14.2415 17.5C14.2518 17.7097 14.2979 18.0524 14.4722 18.4309C14.6361 18.789 14.8514 19.0345 15 19.1777C9.99829 19.2852 5.00171 19.3926 0 19.5C0.476597 18.5691 1.00957 18.298 1.3273 18.2008L1.32217 18.1957Z" fill="#666666"/>
<path d="M12 8.67617C12.0772 8.61917 12.1608 8.55699 12.2379 8.5C12.6302 8.75907 13.0225 9.01295 13.4148 9.27202C13.5113 9.3601 13.6077 9.45337 13.7106 9.54145C13.8071 9.78497 13.9035 10.0337 14 10.2772C13.865 10.3497 13.7363 10.4275 13.6013 10.5C13.2797 10.1736 12.9518 9.82124 12.6302 9.443C12.4051 9.18394 12.1994 8.92487 12 8.67617Z" fill="#666666"/>
<path d="M30.216 4.492L30.024 5.676H25.784V15.5H24.424V4.492H30.216ZM35.2081 6.908C37.0961 6.908 37.9761 8.524 37.9761 11.276C37.9761 13.948 36.9361 15.692 35.0161 15.692C34.1681 15.692 33.4801 15.324 33.0001 14.7V18.7L31.6881 18.876V7.084H32.8401L32.9361 8.22C33.4801 7.388 34.2481 6.908 35.2081 6.908ZM34.7281 14.604C35.9121 14.604 36.5841 13.612 36.5841 11.276C36.5841 8.94 36.0081 7.948 34.8881 7.948C34.0401 7.948 33.4321 8.588 33.0001 9.26V13.564C33.4161 14.204 34.0081 14.604 34.7281 14.604ZM45.7409 7.084L43.1969 15.548C42.6529 17.34 41.7729 18.572 39.7089 18.86L39.5649 17.852C41.0849 17.532 41.5329 16.876 41.9809 15.5H41.5169L38.9729 7.084H40.3489L42.3969 14.54L44.3969 7.084H45.7409ZM51.7615 15.5V8.156H48.6095V15.5H47.2975V7.084H53.0735V15.5H51.7615ZM60.2615 15.5V8.156H57.1095V15.5H55.7975V7.084H61.5735V15.5H60.2615ZM69.4175 13.66C69.4175 14.364 69.6415 14.62 70.0415 14.78L69.7535 15.692C68.9695 15.564 68.4895 15.228 68.2975 14.428C67.7535 15.308 66.9695 15.692 66.0415 15.692C64.5215 15.692 63.6095 14.668 63.6095 13.148C63.6095 11.372 64.8255 10.396 67.0015 10.396H68.1215V9.644C68.1215 8.46 67.6095 7.964 66.5535 7.964C65.9135 7.964 65.2415 8.124 64.4735 8.412L64.1535 7.468C65.0495 7.1 65.9135 6.908 66.7455 6.908C68.5855 6.908 69.4175 7.916 69.4175 9.58V13.66ZM66.3135 14.7C67.1295 14.7 67.7055 14.22 68.1215 13.292V11.292H67.1615C65.7055 11.292 64.9855 11.884 64.9855 13.1C64.9855 14.156 65.4655 14.7 66.3135 14.7ZM81.649 7.084L79.361 10.988L81.937 15.5H80.481L78.289 11.564H77.297V15.5H75.985V7.084H77.297V10.524H78.305L80.305 7.084H81.649ZM86.1771 6.908C88.3051 6.908 89.5371 8.46 89.5371 11.276C89.5371 13.964 88.2731 15.692 86.1611 15.692C84.0171 15.692 82.7851 14.028 82.7851 11.308C82.7851 8.54 84.0331 6.908 86.1771 6.908ZM86.1771 7.964C84.8971 7.964 84.1771 8.956 84.1771 11.308C84.1771 13.628 84.8811 14.62 86.1611 14.62C87.4251 14.62 88.1451 13.628 88.1451 11.276C88.1451 8.956 87.4411 7.964 86.1771 7.964ZM98.535 7.084L99.207 15.5H97.943L97.607 11.244C97.527 10.252 97.511 9.404 97.527 8.38L95.751 14.54H94.551L92.871 8.396C92.887 9.356 92.871 10.268 92.807 11.228L92.535 15.5H91.271L91.943 7.084H93.591L95.175 13.228L96.855 7.084H98.535ZM105.933 15.5V8.156H102.781V15.5H101.469V7.084H107.245V15.5H105.933ZM115.089 13.66C115.089 14.364 115.313 14.62 115.713 14.78L115.425 15.692C114.641 15.564 114.161 15.228 113.969 14.428C113.425 15.308 112.641 15.692 111.713 15.692C110.193 15.692 109.281 14.668 109.281 13.148C109.281 11.372 110.497 10.396 112.673 10.396H113.793V9.644C113.793 8.46 113.281 7.964 112.225 7.964C111.585 7.964 110.913 8.124 110.145 8.412L109.825 7.468C110.721 7.1 111.585 6.908 112.417 6.908C114.257 6.908 115.089 7.916 115.089 9.58V13.66ZM111.985 14.7C112.801 14.7 113.377 14.22 113.793 13.292V11.292H112.833C111.377 11.292 110.657 11.884 110.657 13.1C110.657 14.156 111.137 14.7 111.985 14.7ZM122.325 15.5V11.724H119.141V15.5H117.829V7.084H119.141V10.652H122.325V7.084H123.637V15.5H122.325ZM132.28 7.084V15.5H130.984V11.292C130.984 9.948 131.112 8.972 131.192 8.572L127.88 15.5H126.376V7.084H127.672V11.228C127.672 12.492 127.544 13.548 127.48 13.964L130.744 7.084H132.28ZM137.945 5.164C136.793 5.164 135.945 4.508 135.817 3.404L136.665 3.212C136.857 3.884 137.257 4.14 137.945 4.14C138.617 4.14 139.049 3.884 139.257 3.212L140.089 3.404C139.977 4.508 139.097 5.164 137.945 5.164ZM140.905 7.084V15.5H139.609V11.292C139.609 9.948 139.737 8.972 139.817 8.572L136.505 15.5H135.001V7.084H136.297V11.228C136.297 12.492 136.169 13.548 136.105 13.964L139.369 7.084H140.905ZM153.374 4.492L153.23 5.644H150.478V15.5H149.118V5.644H146.302V4.492H153.374ZM158.38 6.908C160.268 6.908 161.148 8.524 161.148 11.276C161.148 13.948 160.108 15.692 158.188 15.692C157.34 15.692 156.652 15.324 156.172 14.7V18.7L154.86 18.876V7.084H156.012L156.108 8.22C156.652 7.388 157.42 6.908 158.38 6.908ZM157.9 14.604C159.084 14.604 159.756 13.612 159.756 11.276C159.756 8.94 159.18 7.948 158.06 7.948C157.212 7.948 156.604 8.588 156.172 9.26V13.564C156.588 14.204 157.18 14.604 157.9 14.604ZM168.913 7.084L166.369 15.548C165.825 17.34 164.945 18.572 162.881 18.86L162.737 17.852C164.257 17.532 164.705 16.876 165.153 15.5H164.689L162.145 7.084H163.521L165.569 14.54L167.569 7.084H168.913ZM175.609 14.428H176.377V17.868H175.353L175.145 15.5H170.201L169.993 17.868H168.969V14.428H169.497C170.057 13.996 170.457 13.58 170.665 10.524L170.873 7.084H175.609V14.428ZM174.313 14.428V8.14H172.057L171.913 10.364C171.737 13.1 171.449 13.788 170.633 14.428H174.313Z" fill="#666666"/>
</svg>
