<svg width="72" height="72" viewBox="0 0 72 72" fill="none" xmlns="http://www.w3.org/2000/svg">
<path d="M51.0807 33.1542C51.3491 32.667 51.9616 32.4896 52.4488 32.758C54.0453 33.6375 55.4501 34.8273 56.5831 36.259C57.7161 37.6906 58.5547 39.3358 59.0518 41.1001C59.549 42.8643 59.6949 44.7131 59.4821 46.541C59.2693 48.3688 58.7019 50.1404 57.8125 51.7548C57.5441 52.242 56.9315 52.4194 56.4443 52.151C55.9571 51.8825 55.7797 51.27 56.0481 50.7828C56.8118 49.3966 57.2987 47.876 57.4812 46.308C57.6638 44.7401 57.5384 43.1561 57.113 41.6464C56.6876 40.1368 55.9705 38.731 55.0035 37.509C54.0365 36.287 52.8381 35.2723 51.4768 34.5224C50.9896 34.2539 50.8123 33.6414 51.0807 33.1542Z" fill="#1D809A"/>
<path d="M39.0146 57.9363C39.51 58.1893 40.1167 57.9929 40.3698 57.4976C40.6228 57.0022 40.4264 56.3955 39.9311 56.1424C38.4754 55.3987 37.1823 54.3713 36.1256 53.1185C35.0689 51.8656 34.269 50.4114 33.7723 48.8384C33.2756 47.2655 33.0918 45.6046 33.2322 43.9505C33.3726 42.2965 33.8344 40.6822 34.5916 39.2002C34.8447 38.7048 34.6483 38.0981 34.1529 37.845C33.6575 37.5919 33.0508 37.7884 32.7978 38.2837C31.922 39.9978 31.3875 41.8654 31.225 43.7802C31.0625 45.6949 31.275 47.6199 31.8514 49.445C32.4278 51.2702 33.3567 52.9599 34.5858 54.4172C35.8149 55.8745 37.3198 57.0704 39.0146 57.9363Z" fill="#1D809A"/>
<path d="M48.2878 31.7698C48.2878 32.4373 47.7466 32.9784 47.0791 32.9784C46.4116 32.9784 45.8705 32.4373 45.8705 31.7698C45.8705 31.1023 46.4116 30.5611 47.0791 30.5611C47.7466 30.5611 48.2878 31.1023 48.2878 31.7698Z" fill="#1D809A"/>
<path d="M43.8561 59.5683C44.5236 59.5683 45.0647 59.0272 45.0647 58.3597C45.0647 57.6922 44.5236 57.1511 43.8561 57.1511C43.1886 57.1511 42.6475 57.6922 42.6475 58.3597C42.6475 59.0272 43.1886 59.5683 43.8561 59.5683Z" fill="#1D809A"/>
<path fill-rule="evenodd" clip-rule="evenodd" d="M42.7821 54.3313C42.1999 54.3313 41.7279 53.8592 41.7279 53.277V51.145H40.451C40.0305 51.145 39.6896 50.8041 39.6896 50.3836C39.6896 49.9631 40.0305 49.6222 40.451 49.6222H41.7279V47.5371H40.5799C40.0882 47.5371 39.6896 47.1385 39.6896 46.6469C39.6896 46.1552 40.0882 45.7566 40.5799 45.7566H41.7279V38.8303C41.7279 38.1528 42.2771 37.6036 42.9546 37.6036H46.1323C48.1784 37.6036 49.6934 38.0175 50.6774 38.8453C51.677 39.6731 52.1768 40.8758 52.1768 42.4532C52.1768 43.5153 51.9347 44.429 51.4505 45.1943C50.9663 45.944 50.2479 46.5219 49.2951 46.928C48.358 47.3341 47.1944 47.5371 45.8044 47.5371H43.8364V49.6222H46.9406C47.3611 49.6222 47.702 49.9631 47.702 50.3836C47.702 50.8041 47.3611 51.145 46.9406 51.145H43.8364V53.277C43.8364 53.8592 43.3644 54.3313 42.7821 54.3313ZM43.8364 45.3537C43.8364 45.5762 44.0168 45.7566 44.2393 45.7566H45.4998C46.4525 45.7566 47.2569 45.6551 47.9129 45.452C48.5845 45.249 49.0999 44.9132 49.4591 44.4446C49.8184 43.9761 49.998 43.3357 49.998 42.5235C49.998 41.4615 49.67 40.6727 49.014 40.1573C48.358 39.6419 47.335 39.3842 45.9449 39.3842H44.2393C44.0168 39.3842 43.8364 39.5645 43.8364 39.7871V45.3537Z" fill="#1D809A"/>
<path fill-rule="evenodd" clip-rule="evenodd" d="M21.3125 18.4748H13.2374C10.3449 18.4748 8 16.13 8 13.2374C8 10.3449 10.3449 8 13.2374 8H40.2302C43.1228 8 45.4676 10.3449 45.4676 13.2374C45.4676 14.2757 45.1655 15.2435 44.6443 16.0576H52.7194C55.612 16.0576 57.9568 18.4024 57.9568 21.295C57.9568 24.1875 55.612 26.5324 52.7194 26.5324H50.3743C50.4475 26.6523 50.5158 26.7755 50.5789 26.9017C58.3377 29.2166 64 36.4723 64 45.0647C64 55.5224 55.6126 64 45.2662 64C39.8472 64 34.9656 61.6744 31.545 57.9568H18.6763C15.895 57.9568 13.6403 55.7022 13.6403 52.9209C13.6403 51.2735 14.4313 49.8109 15.6542 48.8921C14.4313 47.9733 13.6403 46.5107 13.6403 44.8633C13.6403 43.2159 14.4313 41.7533 15.6542 40.8345C14.4313 39.9157 13.6403 38.4531 13.6403 36.8058C13.6403 35.274 14.3241 33.9021 15.4031 32.9784C14.3241 32.0548 13.6403 30.6828 13.6403 29.1511C13.6403 26.3698 15.895 24.1151 18.6763 24.1151H21.3125C20.7914 23.3011 20.4892 22.3333 20.4892 21.295C20.4892 20.2566 20.7914 19.2889 21.3125 18.4748ZM13.2374 10.4173H40.2302C41.7877 10.4173 43.0504 11.6799 43.0504 13.2374C43.0504 14.7949 41.7877 16.0576 40.2302 16.0576H13.2374C11.6799 16.0576 10.4173 14.7949 10.4173 13.2374C10.4173 11.6799 11.6799 10.4173 13.2374 10.4173ZM29.6575 55.5396C28.6092 53.9469 27.7931 52.1846 27.2582 50.3022H18.6763C17.23 50.3022 16.0576 51.4746 16.0576 52.9209C16.0576 54.3671 17.23 55.5396 18.6763 55.5396H29.6575ZM26.6836 47.482C26.5838 46.6905 26.5324 45.8837 26.5324 45.0647C26.5324 44.1064 26.6028 43.1647 26.7387 42.2446H18.6763C17.23 42.2446 16.0576 43.417 16.0576 44.8633C16.0576 46.3096 17.23 47.482 18.6763 47.482H26.6836ZM27.3775 39.4245C27.9602 37.5344 28.8281 35.7715 29.9301 34.187H18.6763C17.23 34.187 16.0576 35.3595 16.0576 36.8058C16.0576 38.252 17.23 39.4245 18.6763 39.4245H27.3775ZM31.9268 31.7698C34.4624 29.1709 37.7358 27.3094 41.4038 26.5324H18.6763C17.23 26.5324 16.0576 27.7048 16.0576 29.1511C16.0576 30.5973 17.23 31.7698 18.6763 31.7698H31.9268ZM25.7266 18.4748C24.1691 18.4748 22.9065 19.7374 22.9065 21.295C22.9065 22.8525 24.1691 24.1151 25.7266 24.1151H52.7194C54.2769 24.1151 55.5396 22.8525 55.5396 21.295C55.5396 19.7374 54.2769 18.4748 52.7194 18.4748H25.7266ZM45.2662 61.9856C54.4798 61.9856 61.9856 54.4302 61.9856 45.0647C61.9856 35.6992 54.4798 28.1439 45.2662 28.1439C36.0526 28.1439 28.5468 35.6992 28.5468 45.0647C28.5468 54.4302 36.0526 61.9856 45.2662 61.9856Z" fill="#1D809A"/>
</svg>
