<svg width="28" height="28" viewBox="0 0 28 28" fill="none" xmlns="http://www.w3.org/2000/svg">
<path d="M20.3 16.2866C19.9476 16.1202 18.2596 15.2881 17.9443 15.1587C17.629 15.0293 17.4064 14.9923 17.1652 15.3436C16.9241 15.6949 16.2749 16.4531 16.0708 16.6934C15.8668 16.9338 15.6813 16.9523 15.3289 16.6934C14.3166 16.2885 13.3817 15.713 12.5651 14.9923C11.8258 14.2984 11.2 13.4936 10.7102 12.6069C10.5062 12.2741 10.7102 12.0892 10.8586 11.9043C11.007 11.7194 11.1925 11.516 11.378 11.3126C11.5136 11.1367 11.6258 10.944 11.7118 10.7394C11.7579 10.6442 11.7818 10.5399 11.7818 10.4343C11.7818 10.3286 11.7579 10.2243 11.7118 10.1292C11.7118 9.96274 10.9328 8.28006 10.636 7.5959C10.3392 6.91173 10.0795 7.00419 9.8755 7.00419H9.13354C8.7801 7.01792 8.44655 7.17087 8.2061 7.42948C7.81798 7.79869 7.51055 8.24384 7.30307 8.73704C7.0956 9.23023 6.99256 9.76083 7.00042 10.2956C7.09529 11.6084 7.57953 12.8635 8.39159 13.9013C9.88175 16.1081 11.9205 17.892 14.3087 19.0788C15.1248 19.4301 15.7555 19.6335 16.2563 19.7999C16.9596 20.0118 17.703 20.0562 18.4266 19.9294C18.9072 19.8322 19.3626 19.6376 19.7646 19.3577C20.1667 19.0778 20.5067 18.7185 20.7637 18.3022C20.9776 17.788 21.0481 17.2258 20.9678 16.6749C20.875 16.5455 20.6524 16.4531 20.3 16.2866Z" fill="#E3ECEE"/>
<path d="M23.8682 4.06974C22.5685 2.76661 21.0192 1.73519 19.3116 1.0363C17.6041 0.337409 15.773 -0.0147889 13.9262 0.000475763C11.4798 0.0131911 9.07961 0.663191 6.96527 1.88556C4.85094 3.10792 3.0965 4.85987 1.8772 6.96641C0.657901 9.07296 0.0164067 11.4604 0.0167898 13.8902C0.0171729 16.3201 0.65942 18.7073 1.87939 20.8135L0 28L7.40478 26.1334C9.45187 27.2397 11.7461 27.8174 14.0766 27.8133H13.9262C16.7038 27.8313 19.4239 27.0272 21.7395 25.5037C24.0551 23.9801 25.8614 21.806 26.928 19.2587C27.9946 16.7114 28.2732 13.9064 27.7282 11.2012C27.1833 8.496 25.8395 6.01332 23.8682 4.06974ZM13.9262 25.424C11.8412 25.4257 9.79486 24.8643 8.00618 23.8001L7.59272 23.5574L3.19496 24.6961L4.36018 20.4401L4.09706 20.0108C2.5961 17.61 2.03464 14.7455 2.51922 11.9608C3.00379 9.17607 4.50069 6.6649 6.72588 4.90372C8.95108 3.14255 11.7498 2.25391 14.5909 2.40641C17.4321 2.55892 20.118 3.74195 22.1392 5.73104C23.2227 6.79856 24.0815 8.06958 24.6655 9.47005C25.2495 10.8705 25.5471 12.3724 25.5409 13.8882C25.5359 16.9462 24.3106 19.8775 22.1335 22.0398C19.9564 24.2021 17.0051 25.4191 13.9262 25.424Z" fill="#E3ECEE"/>
</svg>
