<svg width="24" height="24" viewBox="0 0 24 24" fill="none" xmlns="http://www.w3.org/2000/svg">
<path fill-rule="evenodd" clip-rule="evenodd" d="M15.0391 15.9952C13.8737 16.9489 12.384 17.5211 10.7606 17.5211C7.02681 17.5211 4 14.4943 4 10.7606C4 7.02681 7.02681 4 10.7606 4C14.4943 4 17.5211 7.02681 17.5211 10.7606C17.5211 12.384 16.9489 13.8737 15.9952 15.0391L19.802 18.8459C20.066 19.1099 20.066 19.538 19.802 19.802C19.538 20.066 19.1099 20.066 18.8459 19.802L15.0391 15.9952ZM16.169 10.7606C16.169 13.7476 13.7476 16.169 10.7606 16.169C7.77356 16.169 5.35211 13.7476 5.35211 10.7606C5.35211 7.77356 7.77356 5.35211 10.7606 5.35211C13.7476 5.35211 16.169 7.77356 16.169 10.7606Z" fill="#CCCCCC"/>
</svg>
