<svg width="160" height="141" viewBox="0 0 160 141" fill="none" xmlns="http://www.w3.org/2000/svg">
<g opacity="0.5">
<circle cx="2" cy="2.492" r="2" fill="#D36F46"/>
<circle cx="10" cy="2.492" r="2" fill="#D36F46"/>
<circle cx="18" cy="2.492" r="2" fill="#D36F46"/>
<circle cx="26" cy="2.492" r="2" fill="#D36F46"/>
<circle cx="34" cy="2.492" r="2" fill="#D36F46"/>
<circle cx="42" cy="2.492" r="2" fill="#D36F46"/>
<circle cx="50" cy="2.492" r="2" fill="#D36F46"/>
<circle cx="58" cy="2.492" r="2" fill="#D36F46"/>
<circle cx="66" cy="2.492" r="2" fill="#D36F46"/>
<circle cx="74" cy="2.492" r="2" fill="#D36F46"/>
<circle cx="82" cy="2.492" r="2" fill="#D36F46"/>
<circle cx="90" cy="2.492" r="2" fill="#D36F46"/>
<circle cx="98" cy="2.492" r="2" fill="#D36F46"/>
<circle cx="106" cy="2.492" r="2" fill="#D36F46"/>
<circle cx="114" cy="2.492" r="2" fill="#D36F46"/>
<circle cx="122" cy="2.492" r="2" fill="#D36F46"/>
<circle cx="130" cy="2.492" r="2" fill="#D36F46"/>
<circle cx="138" cy="2.492" r="2" fill="#D36F46"/>
<circle cx="2" cy="10.492" r="2" fill="#D36F46"/>
<circle cx="10" cy="10.492" r="2" fill="#D36F46"/>
<circle cx="18" cy="10.492" r="2" fill="#D36F46"/>
<circle cx="26" cy="10.492" r="2" fill="#D36F46"/>
<circle cx="34" cy="10.492" r="2" fill="#D36F46"/>
<circle cx="42" cy="10.492" r="2" fill="#D36F46"/>
<circle cx="50" cy="10.492" r="2" fill="#D36F46"/>
<circle cx="58" cy="10.492" r="2" fill="#D36F46"/>
<circle cx="66" cy="10.492" r="2" fill="#D36F46"/>
<circle cx="74" cy="10.492" r="2" fill="#D36F46"/>
<circle cx="82" cy="10.492" r="2" fill="#D36F46"/>
<circle cx="90" cy="10.492" r="2" fill="#D36F46"/>
<circle cx="98" cy="10.492" r="2" fill="#D36F46"/>
<circle cx="106" cy="10.492" r="2" fill="#D36F46"/>
<circle cx="114" cy="10.492" r="2" fill="#D36F46"/>
<circle cx="122" cy="10.492" r="2" fill="#D36F46"/>
<circle cx="130" cy="10.492" r="2" fill="#D36F46"/>
<circle cx="2" cy="18.492" r="2" fill="#D36F46"/>
<circle cx="10" cy="18.492" r="2" fill="#D36F46"/>
<circle cx="18" cy="18.492" r="2" fill="#D36F46"/>
<circle cx="26" cy="18.492" r="2" fill="#D36F46"/>
<circle cx="34" cy="18.492" r="2" fill="#D36F46"/>
<circle cx="42" cy="18.492" r="2" fill="#D36F46"/>
<circle cx="50" cy="18.492" r="2" fill="#D36F46"/>
<circle cx="58" cy="18.492" r="2" fill="#D36F46"/>
<circle cx="66" cy="18.492" r="2" fill="#D36F46"/>
<circle cx="74" cy="18.492" r="2" fill="#D36F46"/>
<circle cx="82" cy="18.492" r="2" fill="#D36F46"/>
<circle cx="90" cy="18.492" r="2" fill="#D36F46"/>
<circle cx="98" cy="18.492" r="2" fill="#D36F46"/>
<circle cx="106" cy="18.492" r="2" fill="#D36F46"/>
<circle cx="114" cy="18.492" r="2" fill="#D36F46"/>
<circle cx="122" cy="18.492" r="2" fill="#D36F46"/>
<circle cx="2" cy="26.492" r="2" fill="#D36F46"/>
<circle cx="10" cy="26.492" r="2" fill="#D36F46"/>
<circle cx="18" cy="26.492" r="2" fill="#D36F46"/>
<circle cx="26" cy="26.492" r="2" fill="#D36F46"/>
<circle cx="34" cy="26.492" r="2" fill="#D36F46"/>
<circle cx="42" cy="26.492" r="2" fill="#D36F46"/>
<circle cx="50" cy="26.492" r="2" fill="#D36F46"/>
<circle cx="58" cy="26.492" r="2" fill="#D36F46"/>
<circle cx="66" cy="26.492" r="2" fill="#D36F46"/>
<circle cx="74" cy="26.492" r="2" fill="#D36F46"/>
<circle cx="82" cy="26.492" r="2" fill="#D36F46"/>
<circle cx="90" cy="26.492" r="2" fill="#D36F46"/>
<circle cx="98" cy="26.492" r="2" fill="#D36F46"/>
<circle cx="106" cy="26.492" r="2" fill="#D36F46"/>
<circle cx="114" cy="26.492" r="2" fill="#D36F46"/>
<circle cx="2" cy="34.492" r="2" fill="#D36F46"/>
<circle cx="10" cy="34.492" r="2" fill="#D36F46"/>
<circle cx="18" cy="34.492" r="2" fill="#D36F46"/>
<circle cx="26" cy="34.492" r="2" fill="#D36F46"/>
<circle cx="34" cy="34.492" r="2" fill="#D36F46"/>
<circle cx="42" cy="34.492" r="2" fill="#D36F46"/>
<circle cx="50" cy="34.492" r="2" fill="#D36F46"/>
<circle cx="58" cy="34.492" r="2" fill="#D36F46"/>
<circle cx="66" cy="34.492" r="2" fill="#D36F46"/>
<circle cx="74" cy="34.492" r="2" fill="#D36F46"/>
<circle cx="82" cy="34.492" r="2" fill="#D36F46"/>
<circle cx="90" cy="34.492" r="2" fill="#D36F46"/>
<circle cx="98" cy="34.492" r="2" fill="#D36F46"/>
<circle cx="106" cy="34.492" r="2" fill="#D36F46"/>
<circle cx="2" cy="42.492" r="2" fill="#D36F46"/>
<circle cx="10" cy="42.492" r="2" fill="#D36F46"/>
<circle cx="18" cy="42.492" r="2" fill="#D36F46"/>
<circle cx="26" cy="42.492" r="2" fill="#D36F46"/>
<circle cx="34" cy="42.492" r="2" fill="#D36F46"/>
<circle cx="42" cy="42.492" r="2" fill="#D36F46"/>
<circle cx="50" cy="42.492" r="2" fill="#D36F46"/>
<circle cx="58" cy="42.492" r="2" fill="#D36F46"/>
<circle cx="66" cy="42.492" r="2" fill="#D36F46"/>
<circle cx="74" cy="42.492" r="2" fill="#D36F46"/>
<circle cx="82" cy="42.492" r="2" fill="#D36F46"/>
<circle cx="90" cy="42.492" r="2" fill="#D36F46"/>
<circle cx="98" cy="42.492" r="2" fill="#D36F46"/>
<circle cx="2" cy="50.492" r="2" fill="#D36F46"/>
<circle cx="10" cy="50.492" r="2" fill="#D36F46"/>
<circle cx="18" cy="50.492" r="2" fill="#D36F46"/>
<circle cx="26" cy="50.492" r="2" fill="#D36F46"/>
<circle cx="34" cy="50.492" r="2" fill="#D36F46"/>
<circle cx="42" cy="50.492" r="2" fill="#D36F46"/>
<circle cx="50" cy="50.492" r="2" fill="#D36F46"/>
<circle cx="58" cy="50.492" r="2" fill="#D36F46"/>
<circle cx="66" cy="50.492" r="2" fill="#D36F46"/>
<circle cx="74" cy="50.492" r="2" fill="#D36F46"/>
<circle cx="82" cy="50.492" r="2" fill="#D36F46"/>
<circle cx="90" cy="50.492" r="2" fill="#D36F46"/>
<circle cx="2" cy="58.492" r="2" fill="#D36F46"/>
<circle cx="10" cy="58.492" r="2" fill="#D36F46"/>
<circle cx="18" cy="58.492" r="2" fill="#D36F46"/>
<circle cx="26" cy="58.492" r="2" fill="#D36F46"/>
<circle cx="34" cy="58.492" r="2" fill="#D36F46"/>
<circle cx="42" cy="58.492" r="2" fill="#D36F46"/>
<circle cx="50" cy="58.492" r="2" fill="#D36F46"/>
<circle cx="58" cy="58.492" r="2" fill="#D36F46"/>
<circle cx="66" cy="58.492" r="2" fill="#D36F46"/>
<circle cx="74" cy="58.492" r="2" fill="#D36F46"/>
<circle cx="82" cy="58.492" r="2" fill="#D36F46"/>
<circle cx="2" cy="66.492" r="2" fill="#D36F46"/>
<circle cx="10" cy="66.492" r="2" fill="#D36F46"/>
<circle cx="18" cy="66.492" r="2" fill="#D36F46"/>
<circle cx="26" cy="66.492" r="2" fill="#D36F46"/>
<circle cx="34" cy="66.492" r="2" fill="#D36F46"/>
<circle cx="42" cy="66.492" r="2" fill="#D36F46"/>
<circle cx="50" cy="66.492" r="2" fill="#D36F46"/>
<circle cx="58" cy="66.492" r="2" fill="#D36F46"/>
<circle cx="66" cy="66.492" r="2" fill="#D36F46"/>
<circle cx="74" cy="66.492" r="2" fill="#D36F46"/>
<circle cx="2" cy="74.492" r="2" fill="#D36F46"/>
<circle cx="10" cy="74.492" r="2" fill="#D36F46"/>
<circle cx="18" cy="74.492" r="2" fill="#D36F46"/>
<circle cx="26" cy="74.492" r="2" fill="#D36F46"/>
<circle cx="34" cy="74.492" r="2" fill="#D36F46"/>
<circle cx="42" cy="74.492" r="2" fill="#D36F46"/>
<circle cx="50" cy="74.492" r="2" fill="#D36F46"/>
<circle cx="58" cy="74.492" r="2" fill="#D36F46"/>
<circle cx="66" cy="74.492" r="2" fill="#D36F46"/>
<circle cx="2" cy="82.492" r="2" fill="#D36F46"/>
<circle cx="10" cy="82.492" r="2" fill="#D36F46"/>
<circle cx="18" cy="82.492" r="2" fill="#D36F46"/>
<circle cx="26" cy="82.492" r="2" fill="#D36F46"/>
<circle cx="34" cy="82.492" r="2" fill="#D36F46"/>
<circle cx="42" cy="82.492" r="2" fill="#D36F46"/>
<circle cx="50" cy="82.492" r="2" fill="#D36F46"/>
<circle cx="58" cy="82.492" r="2" fill="#D36F46"/>
<circle cx="2" cy="90.492" r="2" fill="#D36F46"/>
<circle cx="10" cy="90.492" r="2" fill="#D36F46"/>
<circle cx="18" cy="90.492" r="2" fill="#D36F46"/>
<circle cx="26" cy="90.492" r="2" fill="#D36F46"/>
<circle cx="34" cy="90.492" r="2" fill="#D36F46"/>
<circle cx="42" cy="90.492" r="2" fill="#D36F46"/>
<circle cx="50" cy="90.492" r="2" fill="#D36F46"/>
<circle cx="2" cy="98.492" r="2" fill="#D36F46"/>
<circle cx="10" cy="98.492" r="2" fill="#D36F46"/>
<circle cx="18" cy="98.492" r="2" fill="#D36F46"/>
<circle cx="26" cy="98.492" r="2" fill="#D36F46"/>
<circle cx="34" cy="98.492" r="2" fill="#D36F46"/>
<circle cx="42" cy="98.492" r="2" fill="#D36F46"/>
<circle cx="2" cy="106.492" r="2" fill="#D36F46"/>
<circle cx="10" cy="106.492" r="2" fill="#D36F46"/>
<circle cx="18" cy="106.492" r="2" fill="#D36F46"/>
<circle cx="26" cy="106.492" r="2" fill="#D36F46"/>
<circle cx="34" cy="106.492" r="2" fill="#D36F46"/>
<circle cx="2" cy="114.492" r="2" fill="#D36F46"/>
<circle cx="10" cy="114.492" r="2" fill="#D36F46"/>
<circle cx="18" cy="114.492" r="2" fill="#D36F46"/>
<circle cx="26" cy="114.492" r="2" fill="#D36F46"/>
<circle cx="2" cy="122.492" r="2" fill="#D36F46"/>
<circle cx="10" cy="122.492" r="2" fill="#D36F46"/>
<circle cx="18" cy="122.492" r="2" fill="#D36F46"/>
<circle cx="2" cy="130.492" r="2" fill="#D36F46"/>
<circle cx="10" cy="130.492" r="2" fill="#D36F46"/>
<circle cx="2" cy="138.492" r="2" fill="#D36F46"/>
</g>
</svg>
