<svg width="114" height="83" viewBox="0 0 114 83" fill="none" xmlns="http://www.w3.org/2000/svg">
<circle cx="2" cy="2" r="2" fill="white"/>
<circle cx="20" cy="2" r="2" fill="white"/>
<circle cx="39" cy="2" r="2" fill="white"/>
<circle cx="57" cy="2" r="2" fill="white"/>
<circle cx="76" cy="2" r="2" fill="white"/>
<circle cx="94" cy="2" r="2" fill="white"/>
<circle cx="112" cy="2" r="2" fill="white"/>
<circle cx="2" cy="18" r="2" fill="white"/>
<circle cx="20" cy="18" r="2" fill="white"/>
<circle cx="39" cy="18" r="2" fill="white"/>
<circle cx="57" cy="18" r="2" fill="white"/>
<circle cx="76" cy="18" r="2" fill="white"/>
<circle cx="94" cy="18" r="2" fill="white"/>
<circle cx="112" cy="18" r="2" fill="white"/>
<circle cx="2" cy="34" r="2" fill="white"/>
<circle cx="20" cy="34" r="2" fill="white"/>
<circle cx="39" cy="34" r="2" fill="white"/>
<circle cx="57" cy="34" r="2" fill="white"/>
<circle cx="76" cy="34" r="2" fill="white"/>
<circle cx="94" cy="34" r="2" fill="white"/>
<circle cx="112" cy="34" r="2" fill="white"/>
<circle cx="2" cy="50" r="2" fill="white"/>
<circle cx="20" cy="50" r="2" fill="white"/>
<circle cx="39" cy="50" r="2" fill="white"/>
<circle cx="57" cy="50" r="2" fill="white"/>
<circle cx="76" cy="50" r="2" fill="white"/>
<circle cx="94" cy="50" r="2" fill="white"/>
<circle cx="112" cy="50" r="2" fill="white"/>
<circle cx="2" cy="65" r="2" fill="white"/>
<circle cx="20" cy="65" r="2" fill="white"/>
<circle cx="39" cy="65" r="2" fill="white"/>
<circle cx="57" cy="65" r="2" fill="white"/>
<circle cx="76" cy="65" r="2" fill="white"/>
<circle cx="94" cy="65" r="2" fill="white"/>
<circle cx="112" cy="65" r="2" fill="white"/>
<circle cx="2" cy="81" r="2" fill="white"/>
<circle cx="20" cy="81" r="2" fill="white"/>
<circle cx="39" cy="81" r="2" fill="white"/>
<circle cx="57" cy="81" r="2" fill="white"/>
<circle cx="76" cy="81" r="2" fill="white"/>
<circle cx="94" cy="81" r="2" fill="white"/>
<circle cx="112" cy="81" r="2" fill="white"/>
</svg>
