<svg width="95" height="94" viewBox="0 0 95 94" fill="none" xmlns="http://www.w3.org/2000/svg">
<g clip-path="url(#clip0_1_3850)">
<path d="M41.3435 24.2808C40.2436 23.9934 35.9334 22.7793 35.1687 22.333C34.4834 21.9332 34.2831 20.961 34.764 20.3314C35.3346 19.5844 38.1327 19.1119 39.0417 18.8678L50.5351 15.7829C51.5912 15.4994 52.6587 15.1705 53.7407 15.0024C54.794 14.9489 56.9733 15.8103 58.0957 16.097L67.3021 18.4698C68.9155 18.8845 70.5808 19.2346 72.1681 19.7284C73.9047 20.2689 73.4188 22.4999 73.4193 23.8826L73.4168 28.9473C74.1484 29.6763 77.2592 32.9244 74.1312 32.9538C73.1741 32.9628 72.4873 31.8492 71.8534 31.2728C71.2342 31.815 70.6807 32.7342 69.8093 32.8792C68.5186 33.0942 67.9574 31.5716 68.5273 30.6346C68.8228 30.1486 70.2207 28.9305 70.7146 28.3434V23.1417C69.2549 23.4014 67.7984 23.8965 66.3641 24.2808V29.8568C66.2288 33.2567 57.837 33.8978 55.2674 33.9765C51.5157 34.0914 47.4256 33.8169 43.9098 32.4308C41.1499 31.3425 41.3347 30.6317 41.3367 28.0589L41.3435 24.2808ZM53.7407 17.8553C49.9037 18.695 44.314 20.1037 40.6512 21.3113C43.565 21.8214 52.7205 25.1259 53.9849 24.8993L61.7221 22.7258C63.5 22.2278 65.2739 21.6939 67.0825 21.3113C64.557 20.4506 61.9157 19.8941 59.3331 19.2171L55.9327 18.336C55.2216 18.1553 54.4723 17.9204 53.7407 17.8553ZM44.1289 25.0829C44.1266 26.5465 44.0935 28.0184 44.1289 29.481C48.3042 31.9962 58.9252 31.9195 63.576 29.481V28.7289V25.0829C61.3062 25.6453 59.0593 26.3417 56.8161 26.9976C53.6799 27.9144 54.4409 28.092 51.349 27.1934L46.541 25.7961C45.7448 25.561 44.9382 25.2636 44.1289 25.0829Z" fill="#1D809A"/>
<path d="M12.8426 70.8903L7.85311 70.893C4.25749 70.8997 0.520865 71.288 0.5 66.5869L0.50396 62.0625C0.498787 58.6138 0.497079 56.1451 3.10477 53.529C5.48526 51.1409 10.9872 50.4246 14.4425 49.6794C17.7362 48.9691 17.276 48.9485 20.0579 47.0613L30.4292 39.8798C34.2112 37.2994 37.1599 37.0384 41.5671 37.0392L62.6556 37.0419C65.5515 36.9161 68.7571 37.0327 71.5025 37.9596C74.5281 38.9815 83.2085 45.1329 85.8556 47.8939C88.3588 47.8906 90.6198 47.8182 92.5494 49.6995C95.1493 52.2339 94.3956 57.1486 94.4068 60.5747C94.4296 67.6738 93.9016 71.056 85.8987 70.9962L82.1726 70.9897C79.2797 80.9069 66.4649 79.7798 65.0825 70.8903H32.6551H29.8862C27.7325 80.4442 14.2616 79.8649 12.8426 70.8903ZM51.0942 39.8873C50.9308 39.893 50.8412 39.8572 50.7215 39.9783C50.6707 43.4148 50.7365 46.8653 50.7358 50.3035C52.2164 50.3658 53.7429 50.1592 55.22 50.0416L63.4125 49.3985C64.8555 49.2956 66.3243 49.1338 67.7715 49.1559C68.4133 49.0723 69.0573 49.0103 69.7014 48.946C67.9821 45.5382 65.9753 42.9355 63.8692 39.8873H51.0942ZM38.4202 39.8873C35.2704 40.2472 33.6276 41.0704 31.0874 42.8209L26.9454 45.7216C25.4089 46.7841 23.433 47.7465 22.1974 49.1559C25.6868 49.2392 29.1704 49.5712 32.6551 49.6481L43.0133 50.1562C44.6643 50.2286 46.3122 50.4338 47.9659 50.3035C47.9674 46.8328 48.001 43.3578 47.9659 39.8873C44.7868 39.8875 41.5983 39.8309 38.4202 39.8873ZM67.3576 39.8873C68.8967 42.3783 70.4439 44.7143 71.9587 47.2721C72.6953 48.5163 74.2371 50.0373 72.9381 51.381C71.8498 51.7559 70.4768 51.6777 69.3254 51.7665L54.2389 52.9095C49.5928 53.2533 46.4716 53.1137 41.8287 52.904L21.0888 51.8757C18.0119 51.7405 17.6374 51.8375 14.5878 52.5344L9.11301 53.7294C10.4974 57.771 7.29254 60.8317 3.30424 60.8746C3.28575 61.7459 3.17046 67.4537 3.48624 67.7718C4.05443 68.3441 6.88028 68.128 7.6504 68.128L12.8426 68.1258C13.9019 61.9231 20.3863 59.1055 25.6898 61.991C27.9907 63.4094 29.3733 65.5 29.8862 68.1258H65.0825C65.8184 58.6255 80.9917 58.3168 82.1726 68.1258C83.702 68.1283 87.8759 68.3062 89.054 67.965C92.1564 67.0662 91.6606 63.4751 91.6596 61.0039C91.6591 59.1651 91.6762 57.3245 91.6542 55.4856C91.5722 48.7024 87.0076 51.7082 84.7856 50.536C83.9429 50.0914 82.8857 48.9433 82.0714 48.3082C77.7748 44.9567 72.9143 40.5236 67.3576 39.8873ZM6.42211 54.5881C5.31673 55.1495 3.74306 56.5983 3.67514 57.9445L3.74544 58.0454L3.88263 58.0541C5.91869 57.7892 7.67181 55.3509 6.42211 54.5881ZM73.4589 63.6711C66.0475 63.5205 65.5369 75.3732 73.9519 75.2584C79.2317 74.7587 81.5093 68.264 77.3894 64.9302C76.336 64.0775 74.8373 63.3679 73.4589 63.6711ZM20.6059 63.6711C12.7156 65.2219 14.7046 75.992 22.1974 75.0502C29.8755 73.7532 28.0499 62.8045 20.6059 63.6711Z" fill="#1D809A"/>
</g>
<defs>
<clipPath id="clip0_1_3850">
<rect width="94" height="63" fill="white" transform="translate(0.5 15)"/>
</clipPath>
</defs>
</svg>
